<mxfile host="Electron" modified="2024-05-06T02:57:51.943Z" agent="Mozilla/5.0 (Windows NT 10.0; Win64; x64) AppleWebKit/537.36 (KHTML, like Gecko) draw.io/24.2.5 Chrome/120.0.6099.109 Electron/28.1.0 Safari/537.36" etag="SUbRmej2S74dTvufqhu7" version="24.2.5" type="device" pages="5">
  <diagram name="DFD_0" id="41U3SFGYJuDWl6PII1XF">
    <mxGraphModel dx="1434" dy="854" grid="1" gridSize="10" guides="1" tooltips="1" connect="1" arrows="1" fold="1" page="1" pageScale="1" pageWidth="1169" pageHeight="1654" math="0" shadow="0">
      <root>
        <mxCell id="0" />
        <mxCell id="1" parent="0" />
        <mxCell id="ZzRV-1zygrJwGpyrktlc-5" style="edgeStyle=orthogonalEdgeStyle;rounded=0;orthogonalLoop=1;jettySize=auto;html=1;entryX=0.5;entryY=1;entryDx=0;entryDy=0;" parent="1" source="ZzRV-1zygrJwGpyrktlc-1" target="ZzRV-1zygrJwGpyrktlc-3" edge="1">
          <mxGeometry relative="1" as="geometry" />
        </mxCell>
        <mxCell id="ZzRV-1zygrJwGpyrktlc-7" style="edgeStyle=orthogonalEdgeStyle;rounded=0;orthogonalLoop=1;jettySize=auto;html=1;entryX=0.75;entryY=0;entryDx=0;entryDy=0;" parent="1" source="ZzRV-1zygrJwGpyrktlc-1" target="ZzRV-1zygrJwGpyrktlc-2" edge="1">
          <mxGeometry relative="1" as="geometry" />
        </mxCell>
        <mxCell id="ZzRV-1zygrJwGpyrktlc-9" style="edgeStyle=orthogonalEdgeStyle;rounded=0;orthogonalLoop=1;jettySize=auto;html=1;entryX=0.25;entryY=0;entryDx=0;entryDy=0;" parent="1" source="ZzRV-1zygrJwGpyrktlc-1" target="ZzRV-1zygrJwGpyrktlc-4" edge="1">
          <mxGeometry relative="1" as="geometry" />
        </mxCell>
        <mxCell id="ZzRV-1zygrJwGpyrktlc-16" style="edgeStyle=orthogonalEdgeStyle;rounded=0;orthogonalLoop=1;jettySize=auto;html=1;exitX=1;exitY=0;exitDx=0;exitDy=0;entryX=0.75;entryY=0;entryDx=0;entryDy=0;" parent="1" source="ZzRV-1zygrJwGpyrktlc-1" target="ZzRV-1zygrJwGpyrktlc-4" edge="1">
          <mxGeometry relative="1" as="geometry" />
        </mxCell>
        <mxCell id="ZzRV-1zygrJwGpyrktlc-18" style="edgeStyle=orthogonalEdgeStyle;rounded=0;orthogonalLoop=1;jettySize=auto;html=1;exitX=0;exitY=1;exitDx=0;exitDy=0;entryX=1;entryY=0;entryDx=0;entryDy=0;" parent="1" source="ZzRV-1zygrJwGpyrktlc-1" target="ZzRV-1zygrJwGpyrktlc-2" edge="1">
          <mxGeometry relative="1" as="geometry" />
        </mxCell>
        <mxCell id="ZzRV-1zygrJwGpyrktlc-28" style="edgeStyle=orthogonalEdgeStyle;rounded=0;orthogonalLoop=1;jettySize=auto;html=1;entryX=0;entryY=1;entryDx=0;entryDy=0;" parent="1" source="ZzRV-1zygrJwGpyrktlc-1" target="ZzRV-1zygrJwGpyrktlc-4" edge="1">
          <mxGeometry relative="1" as="geometry">
            <Array as="points">
              <mxPoint x="580" y="700" />
              <mxPoint x="760" y="700" />
            </Array>
          </mxGeometry>
        </mxCell>
        <mxCell id="ZzRV-1zygrJwGpyrktlc-1" value="Quản lý thư viện trường đại&amp;nbsp;" style="ellipse;whiteSpace=wrap;html=1;" parent="1" vertex="1">
          <mxGeometry x="520" y="350" width="120" height="80" as="geometry" />
        </mxCell>
        <mxCell id="ZzRV-1zygrJwGpyrktlc-20" style="edgeStyle=orthogonalEdgeStyle;rounded=0;orthogonalLoop=1;jettySize=auto;html=1;entryX=0;entryY=0;entryDx=0;entryDy=0;" parent="1" source="ZzRV-1zygrJwGpyrktlc-2" target="ZzRV-1zygrJwGpyrktlc-1" edge="1">
          <mxGeometry relative="1" as="geometry">
            <Array as="points">
              <mxPoint x="340" y="362" />
            </Array>
          </mxGeometry>
        </mxCell>
        <mxCell id="ZzRV-1zygrJwGpyrktlc-2" value="M2.Quản lý" style="rounded=0;whiteSpace=wrap;html=1;" parent="1" vertex="1">
          <mxGeometry x="280" y="620" width="120" height="60" as="geometry" />
        </mxCell>
        <mxCell id="ZzRV-1zygrJwGpyrktlc-32" style="edgeStyle=orthogonalEdgeStyle;rounded=0;orthogonalLoop=1;jettySize=auto;html=1;exitX=0.75;exitY=1;exitDx=0;exitDy=0;" parent="1" source="ZzRV-1zygrJwGpyrktlc-3" edge="1">
          <mxGeometry relative="1" as="geometry">
            <mxPoint x="600" y="350" as="targetPoint" />
          </mxGeometry>
        </mxCell>
        <mxCell id="ZzRV-1zygrJwGpyrktlc-41" style="edgeStyle=orthogonalEdgeStyle;rounded=0;orthogonalLoop=1;jettySize=auto;html=1;exitX=1;exitY=1;exitDx=0;exitDy=0;entryX=1;entryY=0;entryDx=0;entryDy=0;" parent="1" source="ZzRV-1zygrJwGpyrktlc-3" target="ZzRV-1zygrJwGpyrktlc-1" edge="1">
          <mxGeometry relative="1" as="geometry">
            <Array as="points">
              <mxPoint x="640" y="362" />
            </Array>
          </mxGeometry>
        </mxCell>
        <mxCell id="ZzRV-1zygrJwGpyrktlc-3" value="MT1.Thư viện" style="rounded=0;whiteSpace=wrap;html=1;" parent="1" vertex="1">
          <mxGeometry x="520" y="80" width="120" height="60" as="geometry" />
        </mxCell>
        <mxCell id="ZzRV-1zygrJwGpyrktlc-26" style="edgeStyle=orthogonalEdgeStyle;rounded=0;orthogonalLoop=1;jettySize=auto;html=1;entryX=1;entryY=1;entryDx=0;entryDy=0;" parent="1" source="ZzRV-1zygrJwGpyrktlc-4" target="ZzRV-1zygrJwGpyrktlc-1" edge="1">
          <mxGeometry relative="1" as="geometry">
            <Array as="points">
              <mxPoint x="730" y="650" />
              <mxPoint x="730" y="418" />
            </Array>
          </mxGeometry>
        </mxCell>
        <mxCell id="ZzRV-1zygrJwGpyrktlc-4" value="M1.Bạn đọc" style="rounded=0;whiteSpace=wrap;html=1;" parent="1" vertex="1">
          <mxGeometry x="760" y="620" width="120" height="60" as="geometry" />
        </mxCell>
        <mxCell id="ZzRV-1zygrJwGpyrktlc-6" value="Yêu cầu nhập sách" style="text;html=1;align=center;verticalAlign=middle;resizable=0;points=[];autosize=1;strokeColor=none;fillColor=none;rotation=90;" parent="1" vertex="1">
          <mxGeometry x="525" y="230" width="130" height="30" as="geometry" />
        </mxCell>
        <mxCell id="ZzRV-1zygrJwGpyrktlc-8" value="Yêu cầu phạt" style="text;html=1;align=center;verticalAlign=middle;resizable=0;points=[];autosize=1;strokeColor=none;fillColor=none;rotation=90;" parent="1" vertex="1">
          <mxGeometry x="340" y="488" width="90" height="30" as="geometry" />
        </mxCell>
        <mxCell id="ZzRV-1zygrJwGpyrktlc-11" value="Phạt" style="text;html=1;align=center;verticalAlign=middle;resizable=0;points=[];autosize=1;strokeColor=none;fillColor=none;rotation=90;" parent="1" vertex="1">
          <mxGeometry x="780" y="500" width="50" height="30" as="geometry" />
        </mxCell>
        <mxCell id="ZzRV-1zygrJwGpyrktlc-12" style="edgeStyle=orthogonalEdgeStyle;rounded=0;orthogonalLoop=1;jettySize=auto;html=1;exitX=0;exitY=0;exitDx=0;exitDy=0;entryX=1.008;entryY=0.638;entryDx=0;entryDy=0;entryPerimeter=0;" parent="1" source="ZzRV-1zygrJwGpyrktlc-4" target="ZzRV-1zygrJwGpyrktlc-1" edge="1">
          <mxGeometry relative="1" as="geometry" />
        </mxCell>
        <mxCell id="ZzRV-1zygrJwGpyrktlc-13" value="Nộp phạt" style="text;html=1;align=center;verticalAlign=middle;resizable=0;points=[];autosize=1;strokeColor=none;fillColor=none;rotation=90;" parent="1" vertex="1">
          <mxGeometry x="735" y="498" width="70" height="30" as="geometry" />
        </mxCell>
        <mxCell id="ZzRV-1zygrJwGpyrktlc-14" style="edgeStyle=orthogonalEdgeStyle;rounded=0;orthogonalLoop=1;jettySize=auto;html=1;entryX=1;entryY=0.363;entryDx=0;entryDy=0;entryPerimeter=0;" parent="1" source="ZzRV-1zygrJwGpyrktlc-4" target="ZzRV-1zygrJwGpyrktlc-1" edge="1">
          <mxGeometry relative="1" as="geometry">
            <Array as="points">
              <mxPoint x="820" y="379" />
            </Array>
          </mxGeometry>
        </mxCell>
        <mxCell id="ZzRV-1zygrJwGpyrktlc-15" value="Trả sách" style="text;html=1;align=center;verticalAlign=middle;resizable=0;points=[];autosize=1;strokeColor=none;fillColor=none;rotation=90;" parent="1" vertex="1">
          <mxGeometry x="800" y="500" width="70" height="30" as="geometry" />
        </mxCell>
        <mxCell id="ZzRV-1zygrJwGpyrktlc-17" value="Cho mượng sách" style="text;html=1;align=center;verticalAlign=middle;resizable=0;points=[];autosize=1;strokeColor=none;fillColor=none;rotation=90;" parent="1" vertex="1">
          <mxGeometry x="800" y="488" width="120" height="30" as="geometry" />
        </mxCell>
        <mxCell id="ZzRV-1zygrJwGpyrktlc-19" value="Báo cáo&amp;nbsp;" style="text;html=1;align=center;verticalAlign=middle;resizable=0;points=[];autosize=1;strokeColor=none;fillColor=none;rotation=90;" parent="1" vertex="1">
          <mxGeometry x="375" y="488" width="70" height="30" as="geometry" />
        </mxCell>
        <mxCell id="ZzRV-1zygrJwGpyrktlc-21" value="Yêu cầu báo cáo" style="text;html=1;align=center;verticalAlign=middle;resizable=0;points=[];autosize=1;strokeColor=none;fillColor=none;rotation=90;" parent="1" vertex="1">
          <mxGeometry x="300" y="480" width="110" height="30" as="geometry" />
        </mxCell>
        <mxCell id="ZzRV-1zygrJwGpyrktlc-22" style="edgeStyle=orthogonalEdgeStyle;rounded=0;orthogonalLoop=1;jettySize=auto;html=1;exitX=0.25;exitY=0;exitDx=0;exitDy=0;entryX=0.275;entryY=0;entryDx=0;entryDy=0;entryPerimeter=0;" parent="1" source="ZzRV-1zygrJwGpyrktlc-2" target="ZzRV-1zygrJwGpyrktlc-1" edge="1">
          <mxGeometry relative="1" as="geometry" />
        </mxCell>
        <mxCell id="ZzRV-1zygrJwGpyrktlc-23" value="Yêu cầu hủy bạn đọc" style="text;html=1;align=center;verticalAlign=middle;resizable=0;points=[];autosize=1;strokeColor=none;fillColor=none;rotation=90;" parent="1" vertex="1">
          <mxGeometry x="250" y="468" width="140" height="30" as="geometry" />
        </mxCell>
        <mxCell id="ZzRV-1zygrJwGpyrktlc-24" style="edgeStyle=orthogonalEdgeStyle;rounded=0;orthogonalLoop=1;jettySize=auto;html=1;exitX=1;exitY=0;exitDx=0;exitDy=0;entryX=0.708;entryY=0.013;entryDx=0;entryDy=0;entryPerimeter=0;" parent="1" source="ZzRV-1zygrJwGpyrktlc-4" target="ZzRV-1zygrJwGpyrktlc-1" edge="1">
          <mxGeometry relative="1" as="geometry" />
        </mxCell>
        <mxCell id="ZzRV-1zygrJwGpyrktlc-25" value="Yêu cầu tạo mới&amp;nbsp; bạn đọc" style="text;html=1;align=center;verticalAlign=middle;resizable=0;points=[];autosize=1;strokeColor=none;fillColor=none;rotation=90;" parent="1" vertex="1">
          <mxGeometry x="815" y="488" width="160" height="30" as="geometry" />
        </mxCell>
        <mxCell id="ZzRV-1zygrJwGpyrktlc-27" value="Yêu cầu hủy bạn đọc" style="text;html=1;align=center;verticalAlign=middle;resizable=0;points=[];autosize=1;strokeColor=none;fillColor=none;rotation=90;" parent="1" vertex="1">
          <mxGeometry x="670" y="498" width="140" height="30" as="geometry" />
        </mxCell>
        <mxCell id="ZzRV-1zygrJwGpyrktlc-29" value="cấp thẻ thư viện" style="text;html=1;align=center;verticalAlign=middle;resizable=0;points=[];autosize=1;strokeColor=none;fillColor=none;rotation=90;" parent="1" vertex="1">
          <mxGeometry x="535" y="538" width="110" height="30" as="geometry" />
        </mxCell>
        <mxCell id="ZzRV-1zygrJwGpyrktlc-33" value="Yêu cầu hủy bạn đọc" style="text;html=1;align=center;verticalAlign=middle;resizable=0;points=[];autosize=1;strokeColor=none;fillColor=none;rotation=90;" parent="1" vertex="1">
          <mxGeometry x="550" y="218" width="140" height="30" as="geometry" />
        </mxCell>
        <mxCell id="ZzRV-1zygrJwGpyrktlc-34" style="edgeStyle=orthogonalEdgeStyle;rounded=0;orthogonalLoop=1;jettySize=auto;html=1;exitX=0.25;exitY=1;exitDx=0;exitDy=0;entryX=0.333;entryY=0.125;entryDx=0;entryDy=0;entryPerimeter=0;" parent="1" source="ZzRV-1zygrJwGpyrktlc-3" target="ZzRV-1zygrJwGpyrktlc-1" edge="1">
          <mxGeometry relative="1" as="geometry" />
        </mxCell>
        <mxCell id="ZzRV-1zygrJwGpyrktlc-35" value="Yêu cầu đếm, kiểm kê" style="text;html=1;align=center;verticalAlign=middle;resizable=0;points=[];autosize=1;strokeColor=none;fillColor=none;rotation=90;" parent="1" vertex="1">
          <mxGeometry x="490" y="198" width="140" height="30" as="geometry" />
        </mxCell>
        <mxCell id="ZzRV-1zygrJwGpyrktlc-36" style="edgeStyle=orthogonalEdgeStyle;rounded=0;orthogonalLoop=1;jettySize=auto;html=1;exitX=0;exitY=1;exitDx=0;exitDy=0;entryX=0.083;entryY=0.188;entryDx=0;entryDy=0;entryPerimeter=0;" parent="1" source="ZzRV-1zygrJwGpyrktlc-3" target="ZzRV-1zygrJwGpyrktlc-1" edge="1">
          <mxGeometry relative="1" as="geometry" />
        </mxCell>
        <mxCell id="ZzRV-1zygrJwGpyrktlc-37" value="Nhập sách" style="text;html=1;align=center;verticalAlign=middle;resizable=0;points=[];autosize=1;strokeColor=none;fillColor=none;rotation=90;" parent="1" vertex="1">
          <mxGeometry x="485" y="180" width="80" height="30" as="geometry" />
        </mxCell>
        <mxCell id="ZzRV-1zygrJwGpyrktlc-39" style="edgeStyle=orthogonalEdgeStyle;rounded=0;orthogonalLoop=1;jettySize=auto;html=1;exitX=0;exitY=0.75;exitDx=0;exitDy=0;entryX=0.667;entryY=1;entryDx=0;entryDy=0;entryPerimeter=0;" parent="1" source="ZzRV-1zygrJwGpyrktlc-4" target="ZzRV-1zygrJwGpyrktlc-1" edge="1">
          <mxGeometry relative="1" as="geometry" />
        </mxCell>
        <mxCell id="ZzRV-1zygrJwGpyrktlc-40" value="nhu cầu" style="text;html=1;align=center;verticalAlign=middle;resizable=0;points=[];autosize=1;strokeColor=none;fillColor=none;" parent="1" vertex="1">
          <mxGeometry x="615" y="638" width="70" height="30" as="geometry" />
        </mxCell>
        <mxCell id="ZzRV-1zygrJwGpyrktlc-42" value="nhu cầu" style="text;html=1;align=center;verticalAlign=middle;resizable=0;points=[];autosize=1;strokeColor=none;fillColor=none;rotation=90;" parent="1" vertex="1">
          <mxGeometry x="615" y="228" width="70" height="30" as="geometry" />
        </mxCell>
        <mxCell id="ZzRV-1zygrJwGpyrktlc-43" style="edgeStyle=orthogonalEdgeStyle;rounded=0;orthogonalLoop=1;jettySize=auto;html=1;exitX=1;exitY=0.25;exitDx=0;exitDy=0;entryX=0.283;entryY=0.975;entryDx=0;entryDy=0;entryPerimeter=0;" parent="1" source="ZzRV-1zygrJwGpyrktlc-2" target="ZzRV-1zygrJwGpyrktlc-1" edge="1">
          <mxGeometry relative="1" as="geometry">
            <Array as="points">
              <mxPoint x="440" y="635" />
              <mxPoint x="440" y="428" />
            </Array>
          </mxGeometry>
        </mxCell>
        <mxCell id="ZzRV-1zygrJwGpyrktlc-44" value="Cho phép mượn sách mật" style="text;html=1;align=center;verticalAlign=middle;resizable=0;points=[];autosize=1;strokeColor=none;fillColor=none;rotation=90;" parent="1" vertex="1">
          <mxGeometry x="370" y="498" width="160" height="30" as="geometry" />
        </mxCell>
      </root>
    </mxGraphModel>
  </diagram>
  <diagram id="2Xizpp5Nq7eTL3ve3215" name="DFD_1">
    <mxGraphModel dx="2962" dy="1068" grid="1" gridSize="10" guides="1" tooltips="1" connect="1" arrows="1" fold="1" page="1" pageScale="1" pageWidth="1169" pageHeight="1654" math="0" shadow="0">
      <root>
        <mxCell id="0" />
        <mxCell id="1" parent="0" />
        <mxCell id="hZRNJgbfLvQWdK2pU0l_-11" style="edgeStyle=orthogonalEdgeStyle;rounded=0;orthogonalLoop=1;jettySize=auto;html=1;exitX=1;exitY=0.5;exitDx=0;exitDy=0;entryX=0.5;entryY=1;entryDx=0;entryDy=0;" parent="1" source="8dXjWXxGQRlc4X-4-pu9-1" target="8dXjWXxGQRlc4X-4-pu9-4" edge="1">
          <mxGeometry relative="1" as="geometry" />
        </mxCell>
        <mxCell id="hZRNJgbfLvQWdK2pU0l_-29" style="edgeStyle=orthogonalEdgeStyle;rounded=0;orthogonalLoop=1;jettySize=auto;html=1;exitX=0.5;exitY=0;exitDx=0;exitDy=0;entryX=0;entryY=0.5;entryDx=0;entryDy=0;" parent="1" source="8dXjWXxGQRlc4X-4-pu9-1" target="8dXjWXxGQRlc4X-4-pu9-4" edge="1">
          <mxGeometry relative="1" as="geometry" />
        </mxCell>
        <mxCell id="hZRNJgbfLvQWdK2pU0l_-39" style="edgeStyle=orthogonalEdgeStyle;rounded=0;orthogonalLoop=1;jettySize=auto;html=1;exitX=1;exitY=0.5;exitDx=0;exitDy=0;entryX=0.5;entryY=0;entryDx=0;entryDy=0;" parent="1" source="8dXjWXxGQRlc4X-4-pu9-1" target="hZRNJgbfLvQWdK2pU0l_-15" edge="1">
          <mxGeometry relative="1" as="geometry">
            <mxPoint x="1000" y="670" as="targetPoint" />
            <Array as="points">
              <mxPoint x="720" y="510" />
              <mxPoint x="1100" y="510" />
            </Array>
          </mxGeometry>
        </mxCell>
        <mxCell id="gLzhEpGjPdv3yyUpu0-a-1" style="edgeStyle=orthogonalEdgeStyle;rounded=0;orthogonalLoop=1;jettySize=auto;html=1;exitX=1;exitY=0;exitDx=0;exitDy=0;entryX=0.25;entryY=1;entryDx=0;entryDy=0;" parent="1" source="8dXjWXxGQRlc4X-4-pu9-1" target="8dXjWXxGQRlc4X-4-pu9-4" edge="1">
          <mxGeometry relative="1" as="geometry" />
        </mxCell>
        <mxCell id="8dXjWXxGQRlc4X-4-pu9-1" value="B2. Quản&lt;br&gt;lý sách không mật" style="ellipse;whiteSpace=wrap;html=1;" parent="1" vertex="1">
          <mxGeometry x="600" y="400" width="120" height="80" as="geometry" />
        </mxCell>
        <mxCell id="Qyvb8UeXTz7fswLpsVgV-1" style="edgeStyle=orthogonalEdgeStyle;rounded=0;orthogonalLoop=1;jettySize=auto;html=1;exitX=1;exitY=0.25;exitDx=0;exitDy=0;" parent="1" source="8dXjWXxGQRlc4X-4-pu9-2" edge="1">
          <mxGeometry relative="1" as="geometry">
            <mxPoint x="330" y="575.5384615384614" as="targetPoint" />
            <Array as="points">
              <mxPoint x="185" y="575" />
            </Array>
          </mxGeometry>
        </mxCell>
        <mxCell id="Qyvb8UeXTz7fswLpsVgV-3" style="edgeStyle=orthogonalEdgeStyle;rounded=0;orthogonalLoop=1;jettySize=auto;html=1;exitX=1;exitY=0.5;exitDx=0;exitDy=0;" parent="1" source="8dXjWXxGQRlc4X-4-pu9-2" edge="1">
          <mxGeometry relative="1" as="geometry">
            <mxPoint x="310" y="589.3846153846152" as="targetPoint" />
          </mxGeometry>
        </mxCell>
        <mxCell id="hZRNJgbfLvQWdK2pU0l_-4" style="rounded=0;orthogonalLoop=1;jettySize=auto;html=1;exitX=0.75;exitY=1;exitDx=0;exitDy=0;edgeStyle=orthogonalEdgeStyle;entryX=0;entryY=1;entryDx=0;entryDy=0;" parent="1" source="8dXjWXxGQRlc4X-4-pu9-2" target="biZAmGW_uuRvbvtDCNye-3" edge="1">
          <mxGeometry relative="1" as="geometry">
            <mxPoint x="320" y="660" as="targetPoint" />
            <Array as="points">
              <mxPoint x="10" y="637" />
            </Array>
          </mxGeometry>
        </mxCell>
        <mxCell id="8dXjWXxGQRlc4X-4-pu9-2" value="MT1.Thư viện" style="rounded=0;whiteSpace=wrap;html=1;" parent="1" vertex="1">
          <mxGeometry x="-80" y="560" width="120" height="60" as="geometry" />
        </mxCell>
        <mxCell id="u4X8ZPYzbg9GbZFhVInC-1" style="edgeStyle=orthogonalEdgeStyle;rounded=0;orthogonalLoop=1;jettySize=auto;html=1;exitX=1;exitY=1;exitDx=0;exitDy=0;entryX=0;entryY=0;entryDx=0;entryDy=0;" parent="1" source="8dXjWXxGQRlc4X-4-pu9-3" target="biZAmGW_uuRvbvtDCNye-3" edge="1">
          <mxGeometry relative="1" as="geometry">
            <Array as="points">
              <mxPoint x="40" y="390" />
              <mxPoint x="345" y="390" />
            </Array>
          </mxGeometry>
        </mxCell>
        <mxCell id="8dXjWXxGQRlc4X-4-pu9-3" value="M2.Quản lý" style="rounded=0;whiteSpace=wrap;html=1;" parent="1" vertex="1">
          <mxGeometry x="-80" y="320" width="120" height="60" as="geometry" />
        </mxCell>
        <mxCell id="hZRNJgbfLvQWdK2pU0l_-18" style="edgeStyle=orthogonalEdgeStyle;rounded=0;orthogonalLoop=1;jettySize=auto;html=1;exitX=0.75;exitY=1;exitDx=0;exitDy=0;" parent="1" target="8dXjWXxGQRlc4X-4-pu9-1" edge="1">
          <mxGeometry relative="1" as="geometry">
            <mxPoint x="876.31" y="400" as="sourcePoint" />
            <mxPoint x="730" y="470" as="targetPoint" />
            <Array as="points">
              <mxPoint x="876" y="470" />
            </Array>
          </mxGeometry>
        </mxCell>
        <mxCell id="8dXjWXxGQRlc4X-4-pu9-4" value="&lt;span style=&quot;font-family: &amp;quot;Times New Roman&amp;quot;, serif;&quot;&gt;K3.Kho&lt;/span&gt;&lt;br style=&quot;font-family: &amp;quot;Times New Roman&amp;quot;, serif;&quot;&gt;&lt;span style=&quot;font-family: &amp;quot;Times New Roman&amp;quot;, serif;&quot;&gt;thông tin sách&lt;/span&gt;" style="html=1;dashed=0;whiteSpace=wrap;shape=partialRectangle;right=0;left=0;" parent="1" vertex="1">
          <mxGeometry x="800" y="360" width="100" height="30" as="geometry" />
        </mxCell>
        <mxCell id="hZRNJgbfLvQWdK2pU0l_-13" style="edgeStyle=orthogonalEdgeStyle;rounded=0;orthogonalLoop=1;jettySize=auto;html=1;exitX=1;exitY=0.5;exitDx=0;exitDy=0;entryX=0.5;entryY=0;entryDx=0;entryDy=0;" parent="1" source="biZAmGW_uuRvbvtDCNye-2" target="sw6AoV3NmXhW2kUpb2_h-1" edge="1">
          <mxGeometry relative="1" as="geometry" />
        </mxCell>
        <mxCell id="hZRNJgbfLvQWdK2pU0l_-25" style="edgeStyle=orthogonalEdgeStyle;rounded=0;orthogonalLoop=1;jettySize=auto;html=1;entryX=0;entryY=0.5;entryDx=0;entryDy=0;" parent="1" source="biZAmGW_uuRvbvtDCNye-2" target="sw6AoV3NmXhW2kUpb2_h-1" edge="1">
          <mxGeometry relative="1" as="geometry">
            <Array as="points">
              <mxPoint x="660" y="945" />
            </Array>
          </mxGeometry>
        </mxCell>
        <mxCell id="hZRNJgbfLvQWdK2pU0l_-35" style="edgeStyle=orthogonalEdgeStyle;rounded=0;orthogonalLoop=1;jettySize=auto;html=1;" parent="1" source="biZAmGW_uuRvbvtDCNye-2" edge="1">
          <mxGeometry relative="1" as="geometry">
            <mxPoint x="660" y="640" as="targetPoint" />
          </mxGeometry>
        </mxCell>
        <mxCell id="hZRNJgbfLvQWdK2pU0l_-40" style="edgeStyle=orthogonalEdgeStyle;rounded=0;orthogonalLoop=1;jettySize=auto;html=1;exitX=1;exitY=0.5;exitDx=0;exitDy=0;entryX=0.5;entryY=1;entryDx=0;entryDy=0;" parent="1" source="biZAmGW_uuRvbvtDCNye-2" target="hZRNJgbfLvQWdK2pU0l_-15" edge="1">
          <mxGeometry relative="1" as="geometry">
            <Array as="points">
              <mxPoint x="720" y="750" />
              <mxPoint x="1100" y="750" />
            </Array>
          </mxGeometry>
        </mxCell>
        <mxCell id="gLzhEpGjPdv3yyUpu0-a-3" style="edgeStyle=orthogonalEdgeStyle;rounded=0;orthogonalLoop=1;jettySize=auto;html=1;exitX=1;exitY=1;exitDx=0;exitDy=0;entryX=0;entryY=0;entryDx=0;entryDy=0;" parent="1" source="biZAmGW_uuRvbvtDCNye-2" target="sw6AoV3NmXhW2kUpb2_h-1" edge="1">
          <mxGeometry relative="1" as="geometry">
            <Array as="points">
              <mxPoint x="702" y="930" />
            </Array>
          </mxGeometry>
        </mxCell>
        <mxCell id="biZAmGW_uuRvbvtDCNye-2" value="B3. Quản&lt;br&gt;lý sách mật" style="ellipse;whiteSpace=wrap;html=1;" parent="1" vertex="1">
          <mxGeometry x="600" y="787" width="120" height="80" as="geometry" />
        </mxCell>
        <mxCell id="hZRNJgbfLvQWdK2pU0l_-7" style="edgeStyle=orthogonalEdgeStyle;rounded=0;orthogonalLoop=1;jettySize=auto;html=1;exitX=1;exitY=0;exitDx=0;exitDy=0;entryX=0;entryY=0.5;entryDx=0;entryDy=0;" parent="1" source="biZAmGW_uuRvbvtDCNye-3" target="8dXjWXxGQRlc4X-4-pu9-1" edge="1">
          <mxGeometry relative="1" as="geometry">
            <Array as="points">
              <mxPoint x="465" y="440" />
            </Array>
          </mxGeometry>
        </mxCell>
        <mxCell id="hZRNJgbfLvQWdK2pU0l_-9" style="edgeStyle=orthogonalEdgeStyle;rounded=0;orthogonalLoop=1;jettySize=auto;html=1;exitX=1;exitY=1;exitDx=0;exitDy=0;entryX=0;entryY=0.5;entryDx=0;entryDy=0;" parent="1" source="biZAmGW_uuRvbvtDCNye-3" target="biZAmGW_uuRvbvtDCNye-2" edge="1">
          <mxGeometry relative="1" as="geometry">
            <Array as="points">
              <mxPoint x="465" y="827" />
            </Array>
          </mxGeometry>
        </mxCell>
        <mxCell id="hZRNJgbfLvQWdK2pU0l_-31" style="edgeStyle=orthogonalEdgeStyle;rounded=0;orthogonalLoop=1;jettySize=auto;html=1;entryX=0;entryY=0;entryDx=0;entryDy=0;" parent="1" source="biZAmGW_uuRvbvtDCNye-3" target="8dXjWXxGQRlc4X-4-pu9-1" edge="1">
          <mxGeometry relative="1" as="geometry">
            <Array as="points">
              <mxPoint x="400" y="412" />
            </Array>
          </mxGeometry>
        </mxCell>
        <mxCell id="hZRNJgbfLvQWdK2pU0l_-33" style="edgeStyle=orthogonalEdgeStyle;rounded=0;orthogonalLoop=1;jettySize=auto;html=1;entryX=0;entryY=1;entryDx=0;entryDy=0;" parent="1" source="biZAmGW_uuRvbvtDCNye-3" target="biZAmGW_uuRvbvtDCNye-2" edge="1">
          <mxGeometry relative="1" as="geometry">
            <Array as="points">
              <mxPoint x="400" y="855" />
            </Array>
          </mxGeometry>
        </mxCell>
        <mxCell id="biZAmGW_uuRvbvtDCNye-3" value="B1.&lt;br&gt;Nghiệp&lt;br&gt;vụ thủ thư" style="ellipse;whiteSpace=wrap;html=1;" parent="1" vertex="1">
          <mxGeometry x="320" y="560" width="170" height="90" as="geometry" />
        </mxCell>
        <mxCell id="hZRNJgbfLvQWdK2pU0l_-43" style="edgeStyle=orthogonalEdgeStyle;rounded=0;orthogonalLoop=1;jettySize=auto;html=1;exitX=1;exitY=0.25;exitDx=0;exitDy=0;entryX=0;entryY=1;entryDx=0;entryDy=0;" parent="1" source="jxkSIxepM18J-sIJuTZQ-1" target="biZAmGW_uuRvbvtDCNye-3" edge="1">
          <mxGeometry relative="1" as="geometry" />
        </mxCell>
        <mxCell id="jxkSIxepM18J-sIJuTZQ-1" value="M1.Bạn đọc" style="rounded=0;whiteSpace=wrap;html=1;" parent="1" vertex="1">
          <mxGeometry x="-80" y="797" width="120" height="60" as="geometry" />
        </mxCell>
        <mxCell id="jxkSIxepM18J-sIJuTZQ-2" value="" style="endArrow=none;dashed=1;html=1;rounded=0;" parent="1" edge="1">
          <mxGeometry width="50" height="50" relative="1" as="geometry">
            <mxPoint x="1000" y="200" as="sourcePoint" />
            <mxPoint x="1000" y="210" as="targetPoint" />
            <Array as="points">
              <mxPoint x="160" y="200" />
              <mxPoint x="160" y="1040" />
              <mxPoint x="1000" y="1040" />
            </Array>
          </mxGeometry>
        </mxCell>
        <mxCell id="hZRNJgbfLvQWdK2pU0l_-16" style="edgeStyle=orthogonalEdgeStyle;rounded=0;orthogonalLoop=1;jettySize=auto;html=1;exitX=0.25;exitY=0;exitDx=0;exitDy=0;entryX=1;entryY=1;entryDx=0;entryDy=0;" parent="1" source="sw6AoV3NmXhW2kUpb2_h-1" target="biZAmGW_uuRvbvtDCNye-2" edge="1">
          <mxGeometry relative="1" as="geometry">
            <Array as="points">
              <mxPoint x="825" y="855" />
            </Array>
          </mxGeometry>
        </mxCell>
        <mxCell id="sw6AoV3NmXhW2kUpb2_h-1" value="&lt;span style=&quot;line-height: 130%; font-family: &amp;quot;Times New Roman&amp;quot;, serif;&quot; lang=&quot;VI&quot;&gt;K3.Kho&lt;br/&gt;thông tin sách&lt;/span&gt;" style="html=1;dashed=0;whiteSpace=wrap;shape=partialRectangle;right=0;left=0;" parent="1" vertex="1">
          <mxGeometry x="800" y="930" width="100" height="30" as="geometry" />
        </mxCell>
        <mxCell id="sw6AoV3NmXhW2kUpb2_h-3" value="&lt;span style=&quot;line-height: 130%; font-family: &amp;quot;Times New Roman&amp;quot;, serif;&quot; lang=&quot;EN-GB&quot;&gt;&lt;font style=&quot;font-size: 12px;&quot;&gt;K1.Kho dữ liệu bạn đọc&lt;/font&gt;&lt;/span&gt;" style="html=1;dashed=0;whiteSpace=wrap;shape=partialRectangle;right=0;left=0;" parent="1" vertex="1">
          <mxGeometry x="220" y="665" width="95" height="30" as="geometry" />
        </mxCell>
        <mxCell id="sw6AoV3NmXhW2kUpb2_h-4" value="&lt;span style=&quot;line-height: 130%; font-family: &amp;quot;Times New Roman&amp;quot;, serif;&quot; lang=&quot;EN-GB&quot;&gt;&lt;font style=&quot;font-size: 12px;&quot;&gt;K2.Kho dữ liệu mượn trả&lt;/font&gt;&lt;/span&gt;" style="html=1;dashed=0;whiteSpace=wrap;shape=partialRectangle;right=0;left=0;" parent="1" vertex="1">
          <mxGeometry x="190" y="425" width="100" height="30" as="geometry" />
        </mxCell>
        <mxCell id="sw6AoV3NmXhW2kUpb2_h-6" value="&lt;span style=&quot;line-height: 130%; font-family: &amp;quot;Times New Roman&amp;quot;, serif;&quot; lang=&quot;VI&quot;&gt;&lt;font style=&quot;font-size: 12px;&quot;&gt;K6.Kho&lt;br/&gt;lưu tiền phạt&lt;/font&gt;&lt;/span&gt;" style="html=1;dashed=0;whiteSpace=wrap;shape=partialRectangle;right=0;left=0;" parent="1" vertex="1">
          <mxGeometry x="620" y="280" width="100" height="30" as="geometry" />
        </mxCell>
        <mxCell id="k37SEq_z9DpivswWXJBI-10" style="edgeStyle=orthogonalEdgeStyle;rounded=0;orthogonalLoop=1;jettySize=auto;html=1;" parent="1" source="sw6AoV3NmXhW2kUpb2_h-7" edge="1">
          <mxGeometry relative="1" as="geometry">
            <mxPoint x="490" y="620" as="targetPoint" />
          </mxGeometry>
        </mxCell>
        <mxCell id="sw6AoV3NmXhW2kUpb2_h-7" value="&lt;span style=&quot;font-family: &amp;quot;Times New Roman&amp;quot;, serif;&quot;&gt;K3.Kho&lt;/span&gt;&lt;br style=&quot;font-family: &amp;quot;Times New Roman&amp;quot;, serif;&quot;&gt;&lt;span style=&quot;font-family: &amp;quot;Times New Roman&amp;quot;, serif;&quot;&gt;thông tin sách&lt;/span&gt;" style="html=1;dashed=0;whiteSpace=wrap;shape=partialRectangle;right=0;left=0;" parent="1" vertex="1">
          <mxGeometry x="620" y="605" width="100" height="30" as="geometry" />
        </mxCell>
        <mxCell id="Qyvb8UeXTz7fswLpsVgV-2" value="Nhu cầu&amp;nbsp;" style="text;html=1;align=center;verticalAlign=middle;resizable=0;points=[];autosize=1;strokeColor=none;fillColor=none;" parent="1" vertex="1">
          <mxGeometry x="115" y="548" width="70" height="30" as="geometry" />
        </mxCell>
        <mxCell id="Ai_of9LJ1EiTcY0IF49I-2" value="Yêu cầu hủy bạn đọc" style="text;html=1;align=center;verticalAlign=middle;resizable=0;points=[];autosize=1;strokeColor=none;fillColor=none;" parent="1" vertex="1">
          <mxGeometry x="70" y="568" width="140" height="30" as="geometry" />
        </mxCell>
        <mxCell id="BmhGVZoV7QohOYcNLtER-2" value="Yêu cầu nhập sách" style="text;html=1;align=center;verticalAlign=middle;resizable=0;points=[];autosize=1;strokeColor=none;fillColor=none;" parent="1" vertex="1">
          <mxGeometry x="85" y="590" width="130" height="30" as="geometry" />
        </mxCell>
        <mxCell id="hZRNJgbfLvQWdK2pU0l_-3" value="" style="endArrow=classic;html=1;rounded=0;" parent="1" edge="1">
          <mxGeometry width="50" height="50" relative="1" as="geometry">
            <mxPoint x="310" y="620" as="sourcePoint" />
            <mxPoint x="50" y="620" as="targetPoint" />
          </mxGeometry>
        </mxCell>
        <mxCell id="hZRNJgbfLvQWdK2pU0l_-5" value="Yêu cầu thanh lọc" style="text;html=1;align=center;verticalAlign=middle;resizable=0;points=[];autosize=1;strokeColor=none;fillColor=none;" parent="1" vertex="1">
          <mxGeometry x="80" y="635" width="120" height="30" as="geometry" />
        </mxCell>
        <mxCell id="hZRNJgbfLvQWdK2pU0l_-8" value="Nhập sách" style="text;html=1;align=center;verticalAlign=middle;resizable=0;points=[];autosize=1;strokeColor=none;fillColor=none;" parent="1" vertex="1">
          <mxGeometry x="460" y="438" width="80" height="30" as="geometry" />
        </mxCell>
        <mxCell id="hZRNJgbfLvQWdK2pU0l_-10" value="Nhập sách" style="text;html=1;align=center;verticalAlign=middle;resizable=0;points=[];autosize=1;strokeColor=none;fillColor=none;" parent="1" vertex="1">
          <mxGeometry x="460" y="797" width="80" height="30" as="geometry" />
        </mxCell>
        <mxCell id="hZRNJgbfLvQWdK2pU0l_-12" value="thêm sách" style="text;html=1;align=center;verticalAlign=middle;resizable=0;points=[];autosize=1;strokeColor=none;fillColor=none;" parent="1" vertex="1">
          <mxGeometry x="750" y="438" width="80" height="30" as="geometry" />
        </mxCell>
        <mxCell id="hZRNJgbfLvQWdK2pU0l_-14" value="Thêm sách" style="text;html=1;align=center;verticalAlign=middle;resizable=0;points=[];autosize=1;strokeColor=none;fillColor=none;" parent="1" vertex="1">
          <mxGeometry x="750" y="827" width="80" height="30" as="geometry" />
        </mxCell>
        <mxCell id="hZRNJgbfLvQWdK2pU0l_-15" value="M1.Bạn đọc" style="rounded=0;whiteSpace=wrap;html=1;" parent="1" vertex="1">
          <mxGeometry x="1040" y="598" width="120" height="60" as="geometry" />
        </mxCell>
        <mxCell id="hZRNJgbfLvQWdK2pU0l_-17" value="lấy sách" style="text;html=1;align=center;verticalAlign=middle;resizable=0;points=[];autosize=1;strokeColor=none;fillColor=none;" parent="1" vertex="1">
          <mxGeometry x="735" y="857" width="70" height="30" as="geometry" />
        </mxCell>
        <mxCell id="hZRNJgbfLvQWdK2pU0l_-19" value="lấy sách" style="text;html=1;align=center;verticalAlign=middle;resizable=0;points=[];autosize=1;strokeColor=none;fillColor=none;" parent="1" vertex="1">
          <mxGeometry x="745" y="468" width="70" height="30" as="geometry" />
        </mxCell>
        <mxCell id="hZRNJgbfLvQWdK2pU0l_-20" value="" style="endArrow=classic;html=1;rounded=0;entryX=0;entryY=1;entryDx=0;entryDy=0;exitX=1;exitY=0.5;exitDx=0;exitDy=0;" parent="1" source="biZAmGW_uuRvbvtDCNye-3" target="8dXjWXxGQRlc4X-4-pu9-1" edge="1">
          <mxGeometry width="50" height="50" relative="1" as="geometry">
            <mxPoint x="490" y="568" as="sourcePoint" />
            <mxPoint x="490" y="490" as="targetPoint" />
            <Array as="points">
              <mxPoint x="490" y="468" />
            </Array>
          </mxGeometry>
        </mxCell>
        <mxCell id="hZRNJgbfLvQWdK2pU0l_-21" value="Yêu cầu thanh lọc" style="text;html=1;align=center;verticalAlign=middle;resizable=0;points=[];autosize=1;strokeColor=none;fillColor=none;" parent="1" vertex="1">
          <mxGeometry x="480" y="468" width="120" height="30" as="geometry" />
        </mxCell>
        <mxCell id="hZRNJgbfLvQWdK2pU0l_-23" value="" style="endArrow=classic;html=1;rounded=0;entryX=0;entryY=0;entryDx=0;entryDy=0;exitX=1.006;exitY=0.554;exitDx=0;exitDy=0;exitPerimeter=0;" parent="1" source="biZAmGW_uuRvbvtDCNye-3" target="biZAmGW_uuRvbvtDCNye-2" edge="1">
          <mxGeometry width="50" height="50" relative="1" as="geometry">
            <mxPoint x="515" y="690" as="sourcePoint" />
            <mxPoint x="565" y="640" as="targetPoint" />
            <Array as="points">
              <mxPoint x="491" y="799" />
            </Array>
          </mxGeometry>
        </mxCell>
        <mxCell id="hZRNJgbfLvQWdK2pU0l_-24" value="Yêu cầu thanh lọc" style="text;html=1;align=center;verticalAlign=middle;resizable=0;points=[];autosize=1;strokeColor=none;fillColor=none;" parent="1" vertex="1">
          <mxGeometry x="480" y="778" width="120" height="30" as="geometry" />
        </mxCell>
        <mxCell id="hZRNJgbfLvQWdK2pU0l_-26" value="thanh lọc" style="text;html=1;align=center;verticalAlign=middle;resizable=0;points=[];autosize=1;strokeColor=none;fillColor=none;" parent="1" vertex="1">
          <mxGeometry x="665" y="938" width="70" height="30" as="geometry" />
        </mxCell>
        <mxCell id="hZRNJgbfLvQWdK2pU0l_-28" value="Thanh lọc" style="text;html=1;align=center;verticalAlign=middle;resizable=0;points=[];autosize=1;strokeColor=none;fillColor=none;gradientColor=none;" parent="1" vertex="1">
          <mxGeometry x="680" y="348" width="80" height="30" as="geometry" />
        </mxCell>
        <mxCell id="hZRNJgbfLvQWdK2pU0l_-32" value="Yêu cầu đếm/kiểm kê" style="text;html=1;align=center;verticalAlign=middle;resizable=0;points=[];autosize=1;strokeColor=none;fillColor=none;" parent="1" vertex="1">
          <mxGeometry x="410" y="378" width="140" height="30" as="geometry" />
        </mxCell>
        <mxCell id="hZRNJgbfLvQWdK2pU0l_-34" value="Yêu cầu đếm kiểm kê" style="text;html=1;align=center;verticalAlign=middle;resizable=0;points=[];autosize=1;strokeColor=none;fillColor=none;" parent="1" vertex="1">
          <mxGeometry x="400" y="828" width="140" height="30" as="geometry" />
        </mxCell>
        <mxCell id="hZRNJgbfLvQWdK2pU0l_-36" value="biên bản đếm kiểm kê" style="text;html=1;align=center;verticalAlign=middle;resizable=0;points=[];autosize=1;strokeColor=none;fillColor=none;rotation=90;" parent="1" vertex="1">
          <mxGeometry x="610" y="698" width="140" height="30" as="geometry" />
        </mxCell>
        <mxCell id="hZRNJgbfLvQWdK2pU0l_-37" style="edgeStyle=orthogonalEdgeStyle;rounded=0;orthogonalLoop=1;jettySize=auto;html=1;entryX=0.4;entryY=-0.167;entryDx=0;entryDy=0;entryPerimeter=0;" parent="1" source="8dXjWXxGQRlc4X-4-pu9-1" target="sw6AoV3NmXhW2kUpb2_h-7" edge="1">
          <mxGeometry relative="1" as="geometry" />
        </mxCell>
        <mxCell id="hZRNJgbfLvQWdK2pU0l_-38" value="Biên bản đếm kiểm kê" style="text;html=1;align=center;verticalAlign=middle;resizable=0;points=[];autosize=1;strokeColor=none;fillColor=none;rotation=90;" parent="1" vertex="1">
          <mxGeometry x="610" y="518" width="140" height="30" as="geometry" />
        </mxCell>
        <mxCell id="hZRNJgbfLvQWdK2pU0l_-41" value="Cho mượn" style="text;html=1;align=center;verticalAlign=middle;resizable=0;points=[];autosize=1;strokeColor=none;fillColor=none;" parent="1" vertex="1">
          <mxGeometry x="860" y="757" width="80" height="30" as="geometry" />
        </mxCell>
        <mxCell id="hZRNJgbfLvQWdK2pU0l_-42" value="Cho mượn" style="text;html=1;align=center;verticalAlign=middle;resizable=0;points=[];autosize=1;strokeColor=none;fillColor=none;" parent="1" vertex="1">
          <mxGeometry x="850" y="488" width="80" height="30" as="geometry" />
        </mxCell>
        <mxCell id="hZRNJgbfLvQWdK2pU0l_-44" value="Yêu cầu cấp mới/ cấp lại thẻ thư viện" style="text;html=1;align=center;verticalAlign=middle;resizable=0;points=[];autosize=1;strokeColor=none;fillColor=none;" parent="1" vertex="1">
          <mxGeometry x="70" y="778" width="220" height="30" as="geometry" />
        </mxCell>
        <mxCell id="hZRNJgbfLvQWdK2pU0l_-45" style="edgeStyle=orthogonalEdgeStyle;rounded=0;orthogonalLoop=1;jettySize=auto;html=1;entryX=0.281;entryY=0.983;entryDx=0;entryDy=0;entryPerimeter=0;" parent="1" source="jxkSIxepM18J-sIJuTZQ-1" target="biZAmGW_uuRvbvtDCNye-3" edge="1">
          <mxGeometry relative="1" as="geometry" />
        </mxCell>
        <mxCell id="hZRNJgbfLvQWdK2pU0l_-46" value="Yêu cầu mượn/ đơn mượn&amp;nbsp;" style="text;html=1;align=center;verticalAlign=middle;resizable=0;points=[];autosize=1;strokeColor=none;fillColor=none;" parent="1" vertex="1">
          <mxGeometry x="65" y="828" width="170" height="30" as="geometry" />
        </mxCell>
        <mxCell id="hZRNJgbfLvQWdK2pU0l_-47" style="edgeStyle=orthogonalEdgeStyle;rounded=0;orthogonalLoop=1;jettySize=auto;html=1;entryX=0.314;entryY=1.034;entryDx=0;entryDy=0;entryPerimeter=0;" parent="1" source="biZAmGW_uuRvbvtDCNye-3" target="8dXjWXxGQRlc4X-4-pu9-1" edge="1">
          <mxGeometry relative="1" as="geometry">
            <Array as="points">
              <mxPoint x="600" y="605" />
              <mxPoint x="600" y="483" />
            </Array>
          </mxGeometry>
        </mxCell>
        <mxCell id="hZRNJgbfLvQWdK2pU0l_-48" style="edgeStyle=orthogonalEdgeStyle;rounded=0;orthogonalLoop=1;jettySize=auto;html=1;entryX=0.267;entryY=0.018;entryDx=0;entryDy=0;entryPerimeter=0;" parent="1" source="biZAmGW_uuRvbvtDCNye-3" target="biZAmGW_uuRvbvtDCNye-2" edge="1">
          <mxGeometry relative="1" as="geometry">
            <Array as="points">
              <mxPoint x="600" y="605" />
              <mxPoint x="600" y="788" />
            </Array>
          </mxGeometry>
        </mxCell>
        <mxCell id="hZRNJgbfLvQWdK2pU0l_-49" value="Yêu cầu cho mượn" style="text;html=1;align=center;verticalAlign=middle;resizable=0;points=[];autosize=1;strokeColor=none;fillColor=none;" parent="1" vertex="1">
          <mxGeometry x="475" y="578" width="130" height="30" as="geometry" />
        </mxCell>
        <mxCell id="hZRNJgbfLvQWdK2pU0l_-50" style="edgeStyle=orthogonalEdgeStyle;rounded=0;orthogonalLoop=1;jettySize=auto;html=1;exitX=1;exitY=1;exitDx=0;exitDy=0;entryX=0.667;entryY=1.046;entryDx=0;entryDy=0;entryPerimeter=0;" parent="1" source="jxkSIxepM18J-sIJuTZQ-1" target="biZAmGW_uuRvbvtDCNye-3" edge="1">
          <mxGeometry relative="1" as="geometry">
            <Array as="points">
              <mxPoint x="40" y="870" />
              <mxPoint x="433" y="870" />
            </Array>
          </mxGeometry>
        </mxCell>
        <mxCell id="hZRNJgbfLvQWdK2pU0l_-51" value="trả sách" style="text;html=1;align=center;verticalAlign=middle;resizable=0;points=[];autosize=1;strokeColor=none;fillColor=none;" parent="1" vertex="1">
          <mxGeometry x="205" y="838" width="70" height="30" as="geometry" />
        </mxCell>
        <mxCell id="hZRNJgbfLvQWdK2pU0l_-52" style="edgeStyle=orthogonalEdgeStyle;rounded=0;orthogonalLoop=1;jettySize=auto;html=1;exitX=1;exitY=0;exitDx=0;exitDy=0;entryX=0.306;entryY=-0.002;entryDx=0;entryDy=0;entryPerimeter=0;" parent="1" source="jxkSIxepM18J-sIJuTZQ-1" target="biZAmGW_uuRvbvtDCNye-3" edge="1">
          <mxGeometry relative="1" as="geometry">
            <Array as="points">
              <mxPoint x="40" y="720" />
              <mxPoint x="200" y="720" />
              <mxPoint x="200" y="500" />
              <mxPoint x="372" y="500" />
            </Array>
          </mxGeometry>
        </mxCell>
        <mxCell id="hZRNJgbfLvQWdK2pU0l_-53" value="nộp phạt" style="text;html=1;align=center;verticalAlign=middle;resizable=0;points=[];autosize=1;strokeColor=none;fillColor=none;" parent="1" vertex="1">
          <mxGeometry x="245" y="468" width="70" height="30" as="geometry" />
        </mxCell>
        <mxCell id="hZRNJgbfLvQWdK2pU0l_-54" style="edgeStyle=orthogonalEdgeStyle;rounded=0;orthogonalLoop=1;jettySize=auto;html=1;exitX=0.75;exitY=0;exitDx=0;exitDy=0;entryX=0.373;entryY=0.998;entryDx=0;entryDy=0;entryPerimeter=0;" parent="1" source="jxkSIxepM18J-sIJuTZQ-1" target="biZAmGW_uuRvbvtDCNye-3" edge="1">
          <mxGeometry relative="1" as="geometry">
            <Array as="points">
              <mxPoint x="10" y="750" />
              <mxPoint x="383" y="750" />
            </Array>
          </mxGeometry>
        </mxCell>
        <mxCell id="hZRNJgbfLvQWdK2pU0l_-55" value="Yêu cầu hủy thẻ" style="text;html=1;align=center;verticalAlign=middle;resizable=0;points=[];autosize=1;strokeColor=none;fillColor=none;" parent="1" vertex="1">
          <mxGeometry x="145" y="718" width="110" height="30" as="geometry" />
        </mxCell>
        <mxCell id="CAQrPFS5__FLF64RiXbW-2" value="" style="endArrow=classic;html=1;rounded=0;exitX=0.566;exitY=1.03;exitDx=0;exitDy=0;exitPerimeter=0;" parent="1" source="biZAmGW_uuRvbvtDCNye-3" edge="1">
          <mxGeometry width="50" height="50" relative="1" as="geometry">
            <mxPoint x="389.29" y="910" as="sourcePoint" />
            <mxPoint x="10" y="860" as="targetPoint" />
            <Array as="points">
              <mxPoint x="416" y="900" />
              <mxPoint x="10" y="900" />
            </Array>
          </mxGeometry>
        </mxCell>
        <mxCell id="ZWV9XSwBq8wc7n0LuX2Y-1" value="Cấp thẻ" style="text;html=1;align=center;verticalAlign=middle;resizable=0;points=[];autosize=1;strokeColor=none;fillColor=none;" parent="1" vertex="1">
          <mxGeometry x="155" y="898" width="70" height="30" as="geometry" />
        </mxCell>
        <mxCell id="FqnHbDQADEQJLbuWAUSR-1" style="edgeStyle=orthogonalEdgeStyle;rounded=0;orthogonalLoop=1;jettySize=auto;html=1;exitX=1;exitY=0.5;exitDx=0;exitDy=0;entryX=0.388;entryY=-0.033;entryDx=0;entryDy=0;entryPerimeter=0;" parent="1" source="8dXjWXxGQRlc4X-4-pu9-3" target="biZAmGW_uuRvbvtDCNye-3" edge="1">
          <mxGeometry relative="1" as="geometry" />
        </mxCell>
        <mxCell id="FqnHbDQADEQJLbuWAUSR-2" value="Cho phép mượn sách mật" style="text;html=1;align=center;verticalAlign=middle;resizable=0;points=[];autosize=1;strokeColor=none;fillColor=none;" parent="1" vertex="1">
          <mxGeometry x="140" y="330" width="160" height="30" as="geometry" />
        </mxCell>
        <mxCell id="FqnHbDQADEQJLbuWAUSR-3" style="edgeStyle=orthogonalEdgeStyle;rounded=0;orthogonalLoop=1;jettySize=auto;html=1;exitX=1;exitY=0.75;exitDx=0;exitDy=0;entryX=0.235;entryY=0.044;entryDx=0;entryDy=0;entryPerimeter=0;" parent="1" source="8dXjWXxGQRlc4X-4-pu9-3" target="biZAmGW_uuRvbvtDCNye-3" edge="1">
          <mxGeometry relative="1" as="geometry" />
        </mxCell>
        <mxCell id="FqnHbDQADEQJLbuWAUSR-5" value="Yêu cầu báo cáo" style="text;html=1;align=center;verticalAlign=middle;resizable=0;points=[];autosize=1;strokeColor=none;fillColor=none;" parent="1" vertex="1">
          <mxGeometry x="135" y="358" width="110" height="30" as="geometry" />
        </mxCell>
        <mxCell id="u4X8ZPYzbg9GbZFhVInC-2" value="Yêu cầu hủy" style="text;html=1;align=center;verticalAlign=middle;resizable=0;points=[];autosize=1;strokeColor=none;fillColor=none;" parent="1" vertex="1">
          <mxGeometry x="135" y="388" width="90" height="30" as="geometry" />
        </mxCell>
        <mxCell id="k37SEq_z9DpivswWXJBI-1" value="" style="endArrow=classic;html=1;rounded=0;exitX=0.576;exitY=0.011;exitDx=0;exitDy=0;exitPerimeter=0;entryX=1;entryY=0;entryDx=0;entryDy=0;" parent="1" source="biZAmGW_uuRvbvtDCNye-3" target="8dXjWXxGQRlc4X-4-pu9-3" edge="1">
          <mxGeometry width="50" height="50" relative="1" as="geometry">
            <mxPoint x="390" y="320" as="sourcePoint" />
            <mxPoint x="420" y="270" as="targetPoint" />
            <Array as="points">
              <mxPoint x="418" y="320" />
            </Array>
          </mxGeometry>
        </mxCell>
        <mxCell id="k37SEq_z9DpivswWXJBI-2" value="Báo cáo" style="text;html=1;align=center;verticalAlign=middle;resizable=0;points=[];autosize=1;strokeColor=none;fillColor=none;" parent="1" vertex="1">
          <mxGeometry x="275" y="288" width="70" height="30" as="geometry" />
        </mxCell>
        <mxCell id="k37SEq_z9DpivswWXJBI-3" value="" style="endArrow=classic;html=1;rounded=0;exitX=0.706;exitY=0.011;exitDx=0;exitDy=0;exitPerimeter=0;entryX=0.5;entryY=0;entryDx=0;entryDy=0;" parent="1" source="biZAmGW_uuRvbvtDCNye-3" target="8dXjWXxGQRlc4X-4-pu9-3" edge="1">
          <mxGeometry width="50" height="50" relative="1" as="geometry">
            <mxPoint x="430" y="518" as="sourcePoint" />
            <mxPoint x="-20" y="280" as="targetPoint" />
            <Array as="points">
              <mxPoint x="440" y="280" />
              <mxPoint x="-20" y="280" />
            </Array>
          </mxGeometry>
        </mxCell>
        <mxCell id="k37SEq_z9DpivswWXJBI-4" value="Yêu cầu phạt" style="text;html=1;align=center;verticalAlign=middle;resizable=0;points=[];autosize=1;strokeColor=none;fillColor=none;" parent="1" vertex="1">
          <mxGeometry x="185" y="258" width="90" height="30" as="geometry" />
        </mxCell>
        <mxCell id="k37SEq_z9DpivswWXJBI-5" value="" style="endArrow=classic;html=1;rounded=0;entryX=0.029;entryY=0.689;entryDx=0;entryDy=0;entryPerimeter=0;" parent="1" target="biZAmGW_uuRvbvtDCNye-3" edge="1">
          <mxGeometry width="50" height="50" relative="1" as="geometry">
            <mxPoint x="270" y="665" as="sourcePoint" />
            <mxPoint x="310" y="627" as="targetPoint" />
          </mxGeometry>
        </mxCell>
        <mxCell id="k37SEq_z9DpivswWXJBI-6" value="" style="endArrow=classic;html=1;rounded=0;entryX=0.75;entryY=0;entryDx=0;entryDy=0;" parent="1" target="sw6AoV3NmXhW2kUpb2_h-3" edge="1">
          <mxGeometry width="50" height="50" relative="1" as="geometry">
            <mxPoint x="330" y="630" as="sourcePoint" />
            <mxPoint x="340" y="710" as="targetPoint" />
          </mxGeometry>
        </mxCell>
        <mxCell id="k37SEq_z9DpivswWXJBI-7" value="" style="endArrow=classic;html=1;rounded=0;exitX=0;exitY=0;exitDx=0;exitDy=0;entryX=0.25;entryY=1;entryDx=0;entryDy=0;" parent="1" source="biZAmGW_uuRvbvtDCNye-3" target="sw6AoV3NmXhW2kUpb2_h-4" edge="1">
          <mxGeometry width="50" height="50" relative="1" as="geometry">
            <mxPoint x="210" y="460" as="sourcePoint" />
            <mxPoint x="170" y="480" as="targetPoint" />
          </mxGeometry>
        </mxCell>
        <mxCell id="k37SEq_z9DpivswWXJBI-9" value="" style="endArrow=classic;html=1;rounded=0;entryX=0.25;entryY=1;entryDx=0;entryDy=0;" parent="1" target="sw6AoV3NmXhW2kUpb2_h-6" edge="1">
          <mxGeometry width="50" height="50" relative="1" as="geometry">
            <mxPoint x="442.5" y="560" as="sourcePoint" />
            <mxPoint x="497.5" y="517" as="targetPoint" />
          </mxGeometry>
        </mxCell>
        <mxCell id="gLzhEpGjPdv3yyUpu0-a-2" value="đếm/ kiểm kê" style="text;html=1;align=center;verticalAlign=middle;resizable=0;points=[];autosize=1;strokeColor=none;fillColor=none;" parent="1" vertex="1">
          <mxGeometry x="715" y="388" width="90" height="30" as="geometry" />
        </mxCell>
        <mxCell id="gLzhEpGjPdv3yyUpu0-a-4" value="đếm / kiểm kê" style="text;html=1;align=center;verticalAlign=middle;resizable=0;points=[];autosize=1;strokeColor=none;fillColor=none;" parent="1" vertex="1">
          <mxGeometry x="690" y="898" width="100" height="30" as="geometry" />
        </mxCell>
        <mxCell id="YPlJsyPAFcs50bY8rxt--1" value="&lt;span style=&quot;line-height: 130%; font-family: &amp;quot;Times New Roman&amp;quot;, serif;&quot; lang=&quot;VI&quot;&gt;&lt;font style=&quot;font-size: 12px;&quot;&gt;K7.Kho&lt;br/&gt;lịch sử phạt&lt;/font&gt;&lt;/span&gt;" style="html=1;dashed=0;whiteSpace=wrap;shape=partialRectangle;right=0;left=0;" vertex="1" parent="1">
          <mxGeometry x="485" y="280" width="100" height="30" as="geometry" />
        </mxCell>
        <mxCell id="YPlJsyPAFcs50bY8rxt--2" value="" style="endArrow=classic;html=1;rounded=0;entryX=0.31;entryY=1.072;entryDx=0;entryDy=0;exitX=0.699;exitY=0;exitDx=0;exitDy=0;exitPerimeter=0;entryPerimeter=0;" edge="1" parent="1" source="biZAmGW_uuRvbvtDCNye-3" target="YPlJsyPAFcs50bY8rxt--1">
          <mxGeometry width="50" height="50" relative="1" as="geometry">
            <mxPoint x="438.75" y="538" as="sourcePoint" />
            <mxPoint x="641.25" y="288" as="targetPoint" />
          </mxGeometry>
        </mxCell>
        <mxCell id="YPlJsyPAFcs50bY8rxt--3" value="" style="endArrow=classic;html=1;rounded=0;exitX=0.75;exitY=1;exitDx=0;exitDy=0;entryX=0.815;entryY=0.08;entryDx=0;entryDy=0;entryPerimeter=0;" edge="1" parent="1" source="YPlJsyPAFcs50bY8rxt--1" target="biZAmGW_uuRvbvtDCNye-3">
          <mxGeometry width="50" height="50" relative="1" as="geometry">
            <mxPoint x="530" y="408" as="sourcePoint" />
            <mxPoint x="560" y="610" as="targetPoint" />
          </mxGeometry>
        </mxCell>
        <mxCell id="YPlJsyPAFcs50bY8rxt--4" value="&lt;span style=&quot;line-height: 130%; font-family: &amp;quot;Times New Roman&amp;quot;, serif;&quot; lang=&quot;EN-GB&quot;&gt;&lt;font style=&quot;font-size: 12px;&quot;&gt;K2.Kho dữ liệu mượn trả&lt;/font&gt;&lt;/span&gt;" style="html=1;dashed=0;whiteSpace=wrap;shape=partialRectangle;right=0;left=0;" vertex="1" parent="1">
          <mxGeometry x="800" y="258" width="100" height="30" as="geometry" />
        </mxCell>
        <mxCell id="YPlJsyPAFcs50bY8rxt--5" value="" style="endArrow=classic;html=1;rounded=0;exitX=0.25;exitY=1;exitDx=0;exitDy=0;entryX=0.689;entryY=-0.035;entryDx=0;entryDy=0;entryPerimeter=0;" edge="1" parent="1" source="YPlJsyPAFcs50bY8rxt--4" target="8dXjWXxGQRlc4X-4-pu9-1">
          <mxGeometry width="50" height="50" relative="1" as="geometry">
            <mxPoint x="850" y="288" as="sourcePoint" />
            <mxPoint x="770" y="438" as="targetPoint" />
          </mxGeometry>
        </mxCell>
        <mxCell id="YPlJsyPAFcs50bY8rxt--6" value="" style="endArrow=classic;html=1;rounded=0;entryX=0.5;entryY=1;entryDx=0;entryDy=0;" edge="1" parent="1" source="8dXjWXxGQRlc4X-4-pu9-1" target="YPlJsyPAFcs50bY8rxt--4">
          <mxGeometry width="50" height="50" relative="1" as="geometry">
            <mxPoint x="790" y="480" as="sourcePoint" />
            <mxPoint x="818" y="335" as="targetPoint" />
          </mxGeometry>
        </mxCell>
        <mxCell id="YPlJsyPAFcs50bY8rxt--7" value="&lt;span style=&quot;line-height: 130%; font-family: &amp;quot;Times New Roman&amp;quot;, serif;&quot; lang=&quot;VI&quot;&gt;&lt;font style=&quot;font-size: 12px;&quot;&gt;K4.Kho dữ liệu mượn trả mật&lt;/font&gt;&lt;/span&gt;" style="html=1;dashed=0;whiteSpace=wrap;shape=partialRectangle;right=0;left=0;" vertex="1" parent="1">
          <mxGeometry x="500" y="960" width="100" height="30" as="geometry" />
        </mxCell>
        <mxCell id="YPlJsyPAFcs50bY8rxt--8" value="" style="endArrow=classic;html=1;rounded=0;entryX=0.224;entryY=0.919;entryDx=0;entryDy=0;entryPerimeter=0;exitX=0.5;exitY=0;exitDx=0;exitDy=0;" edge="1" parent="1" source="YPlJsyPAFcs50bY8rxt--7" target="biZAmGW_uuRvbvtDCNye-2">
          <mxGeometry width="50" height="50" relative="1" as="geometry">
            <mxPoint x="519" y="948" as="sourcePoint" />
            <mxPoint x="605" y="878" as="targetPoint" />
          </mxGeometry>
        </mxCell>
        <mxCell id="YPlJsyPAFcs50bY8rxt--9" value="" style="endArrow=classic;html=1;rounded=0;exitX=0.377;exitY=0.985;exitDx=0;exitDy=0;exitPerimeter=0;entryX=0.75;entryY=0;entryDx=0;entryDy=0;" edge="1" parent="1" source="biZAmGW_uuRvbvtDCNye-2" target="YPlJsyPAFcs50bY8rxt--7">
          <mxGeometry width="50" height="50" relative="1" as="geometry">
            <mxPoint x="643" y="885.5" as="sourcePoint" />
            <mxPoint x="585" y="960" as="targetPoint" />
          </mxGeometry>
        </mxCell>
        <mxCell id="YPlJsyPAFcs50bY8rxt--10" value="" style="endArrow=classic;html=1;rounded=0;exitX=0.736;exitY=0.984;exitDx=0;exitDy=0;exitPerimeter=0;entryX=0.25;entryY=0;entryDx=0;entryDy=0;" edge="1" parent="1" source="biZAmGW_uuRvbvtDCNye-3" target="YPlJsyPAFcs50bY8rxt--7">
          <mxGeometry width="50" height="50" relative="1" as="geometry">
            <mxPoint x="443" y="887" as="sourcePoint" />
            <mxPoint x="490" y="1006" as="targetPoint" />
          </mxGeometry>
        </mxCell>
        <mxCell id="YPlJsyPAFcs50bY8rxt--11" value="&lt;span style=&quot;line-height: 130%; font-family: &amp;quot;Times New Roman&amp;quot;, serif;&quot; lang=&quot;VI&quot;&gt;&lt;font style=&quot;font-size: 12px;&quot;&gt;K5.Kho&lt;br/&gt;lưu trữ đơn&lt;/font&gt;&lt;/span&gt;" style="html=1;dashed=0;whiteSpace=wrap;shape=partialRectangle;right=0;left=0;" vertex="1" parent="1">
          <mxGeometry x="500" y="688" width="90" height="30" as="geometry" />
        </mxCell>
        <mxCell id="YPlJsyPAFcs50bY8rxt--12" value="" style="endArrow=classic;html=1;rounded=0;exitX=0.966;exitY=0.701;exitDx=0;exitDy=0;exitPerimeter=0;entryX=0.613;entryY=-0.042;entryDx=0;entryDy=0;entryPerimeter=0;" edge="1" parent="1" source="biZAmGW_uuRvbvtDCNye-3" target="YPlJsyPAFcs50bY8rxt--11">
          <mxGeometry width="50" height="50" relative="1" as="geometry">
            <mxPoint x="506.5" y="707" as="sourcePoint" />
            <mxPoint x="550" y="670" as="targetPoint" />
          </mxGeometry>
        </mxCell>
        <mxCell id="YPlJsyPAFcs50bY8rxt--13" value="" style="endArrow=classic;html=1;rounded=0;exitX=0.361;exitY=-0.042;exitDx=0;exitDy=0;exitPerimeter=0;entryX=0.918;entryY=0.812;entryDx=0;entryDy=0;entryPerimeter=0;" edge="1" parent="1" source="YPlJsyPAFcs50bY8rxt--11" target="biZAmGW_uuRvbvtDCNye-3">
          <mxGeometry width="50" height="50" relative="1" as="geometry">
            <mxPoint x="514" y="710" as="sourcePoint" />
            <mxPoint x="585" y="774" as="targetPoint" />
          </mxGeometry>
        </mxCell>
      </root>
    </mxGraphModel>
  </diagram>
  <diagram id="F0dOloV8qRjN8BpS4cap" name="DFD_2_Khokomat">
    <mxGraphModel dx="340" dy="899" grid="1" gridSize="10" guides="1" tooltips="1" connect="1" arrows="1" fold="1" page="1" pageScale="1" pageWidth="1169" pageHeight="1654" math="0" shadow="0">
      <root>
        <mxCell id="0" />
        <mxCell id="1" parent="0" />
        <mxCell id="gOtOm3TMNsw0IVTfkWPQ-24" value="" style="endArrow=none;dashed=1;html=1;rounded=0;" parent="1" edge="1">
          <mxGeometry width="50" height="50" relative="1" as="geometry">
            <mxPoint x="2700" y="422" as="sourcePoint" />
            <mxPoint x="2700" y="422" as="targetPoint" />
            <Array as="points">
              <mxPoint x="1980" y="422" />
              <mxPoint x="1980" y="1102" />
              <mxPoint x="2710" y="1102" />
            </Array>
          </mxGeometry>
        </mxCell>
        <mxCell id="gOtOm3TMNsw0IVTfkWPQ-38" style="edgeStyle=orthogonalEdgeStyle;rounded=0;orthogonalLoop=1;jettySize=auto;html=1;entryX=1;entryY=0.5;entryDx=0;entryDy=0;" parent="1" source="gOtOm3TMNsw0IVTfkWPQ-25" target="gOtOm3TMNsw0IVTfkWPQ-36" edge="1">
          <mxGeometry relative="1" as="geometry" />
        </mxCell>
        <mxCell id="N_2-PwKKG3h21QzOu54T-2" style="edgeStyle=orthogonalEdgeStyle;rounded=0;orthogonalLoop=1;jettySize=auto;html=1;exitX=1;exitY=0;exitDx=0;exitDy=0;entryX=0.5;entryY=1;entryDx=0;entryDy=0;" edge="1" parent="1" source="gOtOm3TMNsw0IVTfkWPQ-25" target="N_2-PwKKG3h21QzOu54T-1">
          <mxGeometry relative="1" as="geometry" />
        </mxCell>
        <mxCell id="gOtOm3TMNsw0IVTfkWPQ-25" value="C05. Cho mượn sách không mật" style="ellipse;whiteSpace=wrap;html=1;" parent="1" vertex="1">
          <mxGeometry x="2090" y="720" width="120" height="80" as="geometry" />
        </mxCell>
        <mxCell id="gOtOm3TMNsw0IVTfkWPQ-41" style="edgeStyle=orthogonalEdgeStyle;rounded=0;orthogonalLoop=1;jettySize=auto;html=1;entryX=1;entryY=0.5;entryDx=0;entryDy=0;" parent="1" source="gOtOm3TMNsw0IVTfkWPQ-26" target="gOtOm3TMNsw0IVTfkWPQ-28" edge="1">
          <mxGeometry relative="1" as="geometry">
            <mxPoint x="2240" y="947" as="targetPoint" />
          </mxGeometry>
        </mxCell>
        <mxCell id="U-7ZIp58JWGn9X_xSEzb-1" style="edgeStyle=orthogonalEdgeStyle;rounded=0;orthogonalLoop=1;jettySize=auto;html=1;exitX=1;exitY=0;exitDx=0;exitDy=0;entryX=1;entryY=1;entryDx=0;entryDy=0;" parent="1" source="gOtOm3TMNsw0IVTfkWPQ-26" target="gOtOm3TMNsw0IVTfkWPQ-27" edge="1">
          <mxGeometry relative="1" as="geometry" />
        </mxCell>
        <mxCell id="U-7ZIp58JWGn9X_xSEzb-3" style="edgeStyle=orthogonalEdgeStyle;rounded=0;orthogonalLoop=1;jettySize=auto;html=1;exitX=0;exitY=0;exitDx=0;exitDy=0;entryX=1;entryY=0.5;entryDx=0;entryDy=0;" parent="1" source="gOtOm3TMNsw0IVTfkWPQ-26" target="gOtOm3TMNsw0IVTfkWPQ-25" edge="1">
          <mxGeometry relative="1" as="geometry">
            <Array as="points">
              <mxPoint x="2350" y="919" />
              <mxPoint x="2350" y="760" />
            </Array>
          </mxGeometry>
        </mxCell>
        <mxCell id="gOtOm3TMNsw0IVTfkWPQ-26" value="C16. Sắp&lt;br&gt;xếp" style="ellipse;whiteSpace=wrap;html=1;" parent="1" vertex="1">
          <mxGeometry x="2360" y="907" width="120" height="80" as="geometry" />
        </mxCell>
        <mxCell id="gOtOm3TMNsw0IVTfkWPQ-45" style="edgeStyle=orthogonalEdgeStyle;rounded=0;orthogonalLoop=1;jettySize=auto;html=1;exitX=1;exitY=0.5;exitDx=0;exitDy=0;entryX=0.5;entryY=0;entryDx=0;entryDy=0;" parent="1" source="gOtOm3TMNsw0IVTfkWPQ-27" target="gOtOm3TMNsw0IVTfkWPQ-29" edge="1">
          <mxGeometry relative="1" as="geometry" />
        </mxCell>
        <mxCell id="gOtOm3TMNsw0IVTfkWPQ-59" style="edgeStyle=orthogonalEdgeStyle;rounded=0;orthogonalLoop=1;jettySize=auto;html=1;entryX=1;entryY=0.5;entryDx=0;entryDy=0;" parent="1" source="gOtOm3TMNsw0IVTfkWPQ-27" target="gOtOm3TMNsw0IVTfkWPQ-34" edge="1">
          <mxGeometry relative="1" as="geometry">
            <Array as="points">
              <mxPoint x="2410" y="303" />
            </Array>
          </mxGeometry>
        </mxCell>
        <mxCell id="gOtOm3TMNsw0IVTfkWPQ-27" value="C11. Đếm kiểm kê" style="ellipse;whiteSpace=wrap;html=1;" parent="1" vertex="1">
          <mxGeometry x="2350" y="540" width="120" height="80" as="geometry" />
        </mxCell>
        <mxCell id="gOtOm3TMNsw0IVTfkWPQ-42" style="edgeStyle=orthogonalEdgeStyle;rounded=0;orthogonalLoop=1;jettySize=auto;html=1;entryX=0.5;entryY=1;entryDx=0;entryDy=0;" parent="1" source="gOtOm3TMNsw0IVTfkWPQ-28" target="gOtOm3TMNsw0IVTfkWPQ-25" edge="1">
          <mxGeometry relative="1" as="geometry" />
        </mxCell>
        <mxCell id="gOtOm3TMNsw0IVTfkWPQ-44" style="edgeStyle=orthogonalEdgeStyle;rounded=0;orthogonalLoop=1;jettySize=auto;html=1;exitX=0.75;exitY=0;exitDx=0;exitDy=0;entryX=0.5;entryY=1;entryDx=0;entryDy=0;" parent="1" source="gOtOm3TMNsw0IVTfkWPQ-28" target="gOtOm3TMNsw0IVTfkWPQ-27" edge="1">
          <mxGeometry relative="1" as="geometry">
            <Array as="points">
              <mxPoint x="2175" y="860" />
              <mxPoint x="2410" y="860" />
            </Array>
          </mxGeometry>
        </mxCell>
        <mxCell id="gOtOm3TMNsw0IVTfkWPQ-54" style="edgeStyle=orthogonalEdgeStyle;rounded=0;orthogonalLoop=1;jettySize=auto;html=1;entryX=0;entryY=1;entryDx=0;entryDy=0;" parent="1" source="gOtOm3TMNsw0IVTfkWPQ-28" target="gOtOm3TMNsw0IVTfkWPQ-26" edge="1">
          <mxGeometry relative="1" as="geometry">
            <Array as="points">
              <mxPoint x="2150" y="975" />
            </Array>
          </mxGeometry>
        </mxCell>
        <mxCell id="gOtOm3TMNsw0IVTfkWPQ-28" value="&lt;span style=&quot;font-family: &amp;quot;Times New Roman&amp;quot;, serif;&quot;&gt;K3.Kho&lt;/span&gt;&lt;br style=&quot;font-family: &amp;quot;Times New Roman&amp;quot;, serif;&quot;&gt;&lt;span style=&quot;font-family: &amp;quot;Times New Roman&amp;quot;, serif;&quot;&gt;thông tin sách&lt;/span&gt;" style="html=1;dashed=0;whiteSpace=wrap;shape=partialRectangle;right=0;left=0;" parent="1" vertex="1">
          <mxGeometry x="2100" y="932" width="100" height="30" as="geometry" />
        </mxCell>
        <mxCell id="gOtOm3TMNsw0IVTfkWPQ-58" style="edgeStyle=orthogonalEdgeStyle;rounded=0;orthogonalLoop=1;jettySize=auto;html=1;exitX=0.75;exitY=0;exitDx=0;exitDy=0;entryX=1;entryY=0;entryDx=0;entryDy=0;" parent="1" source="gOtOm3TMNsw0IVTfkWPQ-29" target="gOtOm3TMNsw0IVTfkWPQ-27" edge="1">
          <mxGeometry relative="1" as="geometry" />
        </mxCell>
        <mxCell id="gOtOm3TMNsw0IVTfkWPQ-29" value="&lt;span style=&quot;font-family: &amp;quot;Times New Roman&amp;quot;, serif;&quot;&gt;K3.Kho&lt;/span&gt;&lt;br style=&quot;font-family: &amp;quot;Times New Roman&amp;quot;, serif;&quot;&gt;&lt;span style=&quot;font-family: &amp;quot;Times New Roman&amp;quot;, serif;&quot;&gt;thông tin sách&lt;/span&gt;" style="html=1;dashed=0;whiteSpace=wrap;shape=partialRectangle;right=0;left=0;" parent="1" vertex="1">
          <mxGeometry x="2520" y="612" width="100" height="30" as="geometry" />
        </mxCell>
        <mxCell id="gOtOm3TMNsw0IVTfkWPQ-37" style="edgeStyle=orthogonalEdgeStyle;rounded=0;orthogonalLoop=1;jettySize=auto;html=1;entryX=0.5;entryY=0;entryDx=0;entryDy=0;" parent="1" source="gOtOm3TMNsw0IVTfkWPQ-34" target="gOtOm3TMNsw0IVTfkWPQ-25" edge="1">
          <mxGeometry relative="1" as="geometry" />
        </mxCell>
        <mxCell id="gOtOm3TMNsw0IVTfkWPQ-43" style="edgeStyle=orthogonalEdgeStyle;rounded=0;orthogonalLoop=1;jettySize=auto;html=1;exitX=1;exitY=1;exitDx=0;exitDy=0;entryX=0;entryY=0.5;entryDx=0;entryDy=0;" parent="1" source="gOtOm3TMNsw0IVTfkWPQ-34" target="gOtOm3TMNsw0IVTfkWPQ-27" edge="1">
          <mxGeometry relative="1" as="geometry" />
        </mxCell>
        <mxCell id="gOtOm3TMNsw0IVTfkWPQ-34" value="&amp;nbsp; &amp;nbsp; &amp;nbsp; &amp;nbsp; &amp;nbsp;&amp;nbsp;B1.&lt;span style=&quot;text-align: center;&quot;&gt;Nghiệp&amp;nbsp;&lt;/span&gt;&lt;span style=&quot;text-align: center;&quot;&gt;vụ thủ thư&lt;/span&gt;" style="html=1;dashed=0;whiteSpace=wrap;shape=mxgraph.dfd.dataStoreID;align=left;spacingLeft=3;points=[[0,0],[0.5,0],[1,0],[0,0.5],[1,0.5],[0,1],[0.5,1],[1,1]];" parent="1" vertex="1">
          <mxGeometry x="2070" y="270" width="160" height="65" as="geometry" />
        </mxCell>
        <mxCell id="gOtOm3TMNsw0IVTfkWPQ-36" value="M1.Bạn đọc" style="rounded=0;whiteSpace=wrap;html=1;" parent="1" vertex="1">
          <mxGeometry x="1780" y="727.25" width="160" height="65.5" as="geometry" />
        </mxCell>
        <mxCell id="gOtOm3TMNsw0IVTfkWPQ-40" style="edgeStyle=orthogonalEdgeStyle;rounded=0;orthogonalLoop=1;jettySize=auto;html=1;" parent="1" source="gOtOm3TMNsw0IVTfkWPQ-39" edge="1">
          <mxGeometry relative="1" as="geometry">
            <mxPoint x="2420" y="990" as="targetPoint" />
            <Array as="points">
              <mxPoint x="2420" y="1180" />
              <mxPoint x="2420" y="1180" />
            </Array>
          </mxGeometry>
        </mxCell>
        <mxCell id="gOtOm3TMNsw0IVTfkWPQ-56" style="edgeStyle=orthogonalEdgeStyle;rounded=0;orthogonalLoop=1;jettySize=auto;html=1;exitX=0.774;exitY=0.022;exitDx=0;exitDy=0;entryX=1;entryY=1;entryDx=0;entryDy=0;exitPerimeter=0;" parent="1" source="gOtOm3TMNsw0IVTfkWPQ-39" target="gOtOm3TMNsw0IVTfkWPQ-26" edge="1">
          <mxGeometry relative="1" as="geometry">
            <Array as="points" />
          </mxGeometry>
        </mxCell>
        <mxCell id="gOtOm3TMNsw0IVTfkWPQ-39" value="&amp;nbsp; &amp;nbsp; &amp;nbsp; &amp;nbsp; &amp;nbsp;&amp;nbsp;B1.&lt;span style=&quot;text-align: center;&quot;&gt;Nghiệp&amp;nbsp;&lt;/span&gt;&lt;span style=&quot;text-align: center;&quot;&gt;vụ thủ thư&lt;/span&gt;" style="html=1;dashed=0;whiteSpace=wrap;shape=mxgraph.dfd.dataStoreID;align=left;spacingLeft=3;points=[[0,0],[0.5,0],[1,0],[0,0.5],[1,0.5],[0,1],[0.5,1],[1,1]];" parent="1" vertex="1">
          <mxGeometry x="2338" y="1190" width="160" height="65" as="geometry" />
        </mxCell>
        <mxCell id="gOtOm3TMNsw0IVTfkWPQ-46" value="Yêu cầu cho mượn sách" style="text;html=1;align=center;verticalAlign=middle;resizable=0;points=[];autosize=1;strokeColor=none;fillColor=none;rotation=90;" parent="1" vertex="1">
          <mxGeometry x="2085" y="528" width="150" height="30" as="geometry" />
        </mxCell>
        <mxCell id="gOtOm3TMNsw0IVTfkWPQ-47" value="Cho mượn" style="text;html=1;align=center;verticalAlign=middle;resizable=0;points=[];autosize=1;strokeColor=none;fillColor=none;" parent="1" vertex="1">
          <mxGeometry x="1965" y="732" width="80" height="30" as="geometry" />
        </mxCell>
        <mxCell id="gOtOm3TMNsw0IVTfkWPQ-48" value="lấy sách" style="text;html=1;align=center;verticalAlign=middle;resizable=0;points=[];autosize=1;strokeColor=none;fillColor=none;" parent="1" vertex="1">
          <mxGeometry x="2095" y="838" width="70" height="30" as="geometry" />
        </mxCell>
        <mxCell id="gOtOm3TMNsw0IVTfkWPQ-49" value="thông tin sách" style="text;html=1;align=center;verticalAlign=middle;resizable=0;points=[];autosize=1;strokeColor=none;fillColor=none;rotation=90;" parent="1" vertex="1">
          <mxGeometry x="2370" y="758" width="100" height="30" as="geometry" />
        </mxCell>
        <mxCell id="gOtOm3TMNsw0IVTfkWPQ-50" value="Yêu cầu đếm/ kiểm kê" style="text;html=1;align=center;verticalAlign=middle;resizable=0;points=[];autosize=1;strokeColor=none;fillColor=none;rotation=90;" parent="1" vertex="1">
          <mxGeometry x="2180" y="478" width="140" height="30" as="geometry" />
        </mxCell>
        <mxCell id="gOtOm3TMNsw0IVTfkWPQ-51" value="Biên bản" style="text;html=1;align=center;verticalAlign=middle;resizable=0;points=[];autosize=1;strokeColor=none;fillColor=none;" parent="1" vertex="1">
          <mxGeometry x="2500" y="550" width="70" height="30" as="geometry" />
        </mxCell>
        <mxCell id="gOtOm3TMNsw0IVTfkWPQ-52" value="Nhập sách" style="text;html=1;align=center;verticalAlign=middle;resizable=0;points=[];autosize=1;strokeColor=none;fillColor=none;rotation=90;" parent="1" vertex="1">
          <mxGeometry x="2400" y="1080" width="80" height="30" as="geometry" />
        </mxCell>
        <mxCell id="gOtOm3TMNsw0IVTfkWPQ-53" value="Thâm sách" style="text;html=1;align=center;verticalAlign=middle;resizable=0;points=[];autosize=1;strokeColor=none;fillColor=none;" parent="1" vertex="1">
          <mxGeometry x="2230" y="918" width="80" height="30" as="geometry" />
        </mxCell>
        <mxCell id="gOtOm3TMNsw0IVTfkWPQ-55" value="Thanh lọc" style="text;html=1;align=center;verticalAlign=middle;resizable=0;points=[];autosize=1;strokeColor=none;fillColor=none;" parent="1" vertex="1">
          <mxGeometry x="2210" y="980" width="80" height="30" as="geometry" />
        </mxCell>
        <mxCell id="gOtOm3TMNsw0IVTfkWPQ-57" value="Yêu cầu thanh lọc" style="text;html=1;align=center;verticalAlign=middle;resizable=0;points=[];autosize=1;strokeColor=none;fillColor=none;rotation=90;" parent="1" vertex="1">
          <mxGeometry x="2410" y="1070" width="120" height="30" as="geometry" />
        </mxCell>
        <mxCell id="gOtOm3TMNsw0IVTfkWPQ-60" value="thông tin đếm kiểm kê" style="text;html=1;align=center;verticalAlign=middle;resizable=0;points=[];autosize=1;strokeColor=none;fillColor=none;rotation=90;" parent="1" vertex="1">
          <mxGeometry x="2360" y="368" width="140" height="30" as="geometry" />
        </mxCell>
        <mxCell id="U-7ZIp58JWGn9X_xSEzb-2" value="thông tin vị trí" style="text;html=1;align=center;verticalAlign=middle;resizable=0;points=[];autosize=1;strokeColor=none;fillColor=none;rotation=90;" parent="1" vertex="1">
          <mxGeometry x="2420" y="690" width="100" height="30" as="geometry" />
        </mxCell>
        <mxCell id="U-7ZIp58JWGn9X_xSEzb-4" value="thông tin vị trí" style="text;html=1;align=center;verticalAlign=middle;resizable=0;points=[];autosize=1;strokeColor=none;fillColor=none;rotation=90;" parent="1" vertex="1">
          <mxGeometry x="2320" y="792.75" width="100" height="30" as="geometry" />
        </mxCell>
        <mxCell id="N_2-PwKKG3h21QzOu54T-1" value="&lt;span style=&quot;line-height: 130%; font-family: &amp;quot;Times New Roman&amp;quot;, serif;&quot; lang=&quot;EN-GB&quot;&gt;&lt;font style=&quot;font-size: 12px;&quot;&gt;K2.Kho dữ liệu mượn trả&lt;/font&gt;&lt;/span&gt;" style="html=1;dashed=0;whiteSpace=wrap;shape=partialRectangle;right=0;left=0;" vertex="1" parent="1">
          <mxGeometry x="2230" y="630" width="100" height="30" as="geometry" />
        </mxCell>
      </root>
    </mxGraphModel>
  </diagram>
  <diagram id="VaGWAEmeNBW8SnY1nxiL" name="DFD_2_Khomat">
    <mxGraphModel dx="1434" dy="854" grid="1" gridSize="10" guides="1" tooltips="1" connect="1" arrows="1" fold="1" page="1" pageScale="1" pageWidth="1169" pageHeight="1654" math="0" shadow="0">
      <root>
        <mxCell id="0" />
        <mxCell id="1" parent="0" />
        <mxCell id="BiM31fZZ7WOJlMN7RB7W-1" value="" style="endArrow=none;dashed=1;html=1;rounded=0;" parent="1" edge="1">
          <mxGeometry width="50" height="50" relative="1" as="geometry">
            <mxPoint x="1250" y="412" as="sourcePoint" />
            <mxPoint x="1250" y="412" as="targetPoint" />
            <Array as="points">
              <mxPoint x="530" y="412" />
              <mxPoint x="530" y="1092" />
              <mxPoint x="1260" y="1092" />
            </Array>
          </mxGeometry>
        </mxCell>
        <mxCell id="BiM31fZZ7WOJlMN7RB7W-2" style="edgeStyle=orthogonalEdgeStyle;rounded=0;orthogonalLoop=1;jettySize=auto;html=1;entryX=1;entryY=0.5;entryDx=0;entryDy=0;" parent="1" source="BiM31fZZ7WOJlMN7RB7W-3" target="BiM31fZZ7WOJlMN7RB7W-18" edge="1">
          <mxGeometry relative="1" as="geometry" />
        </mxCell>
        <mxCell id="hI6RwnSxpXb6KuBXLDRi-1" style="edgeStyle=orthogonalEdgeStyle;rounded=0;orthogonalLoop=1;jettySize=auto;html=1;exitX=1;exitY=0;exitDx=0;exitDy=0;" edge="1" parent="1" source="BiM31fZZ7WOJlMN7RB7W-3" target="Zo3LOEhpQ1NWYAyu30CJ-1">
          <mxGeometry relative="1" as="geometry" />
        </mxCell>
        <mxCell id="BiM31fZZ7WOJlMN7RB7W-3" value="C08. Cho mượn sách mật" style="ellipse;whiteSpace=wrap;html=1;" parent="1" vertex="1">
          <mxGeometry x="640" y="710" width="120" height="80" as="geometry" />
        </mxCell>
        <mxCell id="BiM31fZZ7WOJlMN7RB7W-4" style="edgeStyle=orthogonalEdgeStyle;rounded=0;orthogonalLoop=1;jettySize=auto;html=1;entryX=1;entryY=0.5;entryDx=0;entryDy=0;" parent="1" source="BiM31fZZ7WOJlMN7RB7W-5" target="BiM31fZZ7WOJlMN7RB7W-12" edge="1">
          <mxGeometry relative="1" as="geometry">
            <mxPoint x="790" y="937" as="targetPoint" />
          </mxGeometry>
        </mxCell>
        <mxCell id="MiFlAIez0qvgZsJip7fz-1" style="edgeStyle=orthogonalEdgeStyle;rounded=0;orthogonalLoop=1;jettySize=auto;html=1;exitX=1;exitY=0;exitDx=0;exitDy=0;entryX=1;entryY=1;entryDx=0;entryDy=0;" parent="1" source="BiM31fZZ7WOJlMN7RB7W-5" target="BiM31fZZ7WOJlMN7RB7W-8" edge="1">
          <mxGeometry relative="1" as="geometry" />
        </mxCell>
        <mxCell id="MiFlAIez0qvgZsJip7fz-3" style="edgeStyle=orthogonalEdgeStyle;rounded=0;orthogonalLoop=1;jettySize=auto;html=1;exitX=0;exitY=0;exitDx=0;exitDy=0;entryX=1;entryY=0.5;entryDx=0;entryDy=0;" parent="1" source="BiM31fZZ7WOJlMN7RB7W-5" target="BiM31fZZ7WOJlMN7RB7W-3" edge="1">
          <mxGeometry relative="1" as="geometry">
            <Array as="points">
              <mxPoint x="880" y="909" />
              <mxPoint x="880" y="750" />
            </Array>
          </mxGeometry>
        </mxCell>
        <mxCell id="BiM31fZZ7WOJlMN7RB7W-5" value="C17. Sắp&lt;br&gt;xếp" style="ellipse;whiteSpace=wrap;html=1;" parent="1" vertex="1">
          <mxGeometry x="910" y="897" width="120" height="80" as="geometry" />
        </mxCell>
        <mxCell id="BiM31fZZ7WOJlMN7RB7W-6" style="edgeStyle=orthogonalEdgeStyle;rounded=0;orthogonalLoop=1;jettySize=auto;html=1;exitX=1;exitY=0.5;exitDx=0;exitDy=0;entryX=0.5;entryY=0;entryDx=0;entryDy=0;" parent="1" source="BiM31fZZ7WOJlMN7RB7W-8" target="BiM31fZZ7WOJlMN7RB7W-14" edge="1">
          <mxGeometry relative="1" as="geometry" />
        </mxCell>
        <mxCell id="BiM31fZZ7WOJlMN7RB7W-7" style="edgeStyle=orthogonalEdgeStyle;rounded=0;orthogonalLoop=1;jettySize=auto;html=1;entryX=1;entryY=0.5;entryDx=0;entryDy=0;" parent="1" source="BiM31fZZ7WOJlMN7RB7W-8" target="BiM31fZZ7WOJlMN7RB7W-17" edge="1">
          <mxGeometry relative="1" as="geometry">
            <Array as="points">
              <mxPoint x="960" y="293" />
            </Array>
          </mxGeometry>
        </mxCell>
        <mxCell id="BiM31fZZ7WOJlMN7RB7W-8" value="C12. Đếm kiểm kê" style="ellipse;whiteSpace=wrap;html=1;" parent="1" vertex="1">
          <mxGeometry x="900" y="530" width="120" height="80" as="geometry" />
        </mxCell>
        <mxCell id="BiM31fZZ7WOJlMN7RB7W-9" style="edgeStyle=orthogonalEdgeStyle;rounded=0;orthogonalLoop=1;jettySize=auto;html=1;entryX=0.5;entryY=1;entryDx=0;entryDy=0;" parent="1" source="BiM31fZZ7WOJlMN7RB7W-12" target="BiM31fZZ7WOJlMN7RB7W-3" edge="1">
          <mxGeometry relative="1" as="geometry" />
        </mxCell>
        <mxCell id="BiM31fZZ7WOJlMN7RB7W-10" style="edgeStyle=orthogonalEdgeStyle;rounded=0;orthogonalLoop=1;jettySize=auto;html=1;exitX=0.75;exitY=0;exitDx=0;exitDy=0;entryX=0.5;entryY=1;entryDx=0;entryDy=0;" parent="1" source="BiM31fZZ7WOJlMN7RB7W-12" target="BiM31fZZ7WOJlMN7RB7W-8" edge="1">
          <mxGeometry relative="1" as="geometry">
            <Array as="points">
              <mxPoint x="725" y="850" />
              <mxPoint x="960" y="850" />
            </Array>
          </mxGeometry>
        </mxCell>
        <mxCell id="BiM31fZZ7WOJlMN7RB7W-11" style="edgeStyle=orthogonalEdgeStyle;rounded=0;orthogonalLoop=1;jettySize=auto;html=1;entryX=0;entryY=1;entryDx=0;entryDy=0;" parent="1" source="BiM31fZZ7WOJlMN7RB7W-12" target="BiM31fZZ7WOJlMN7RB7W-5" edge="1">
          <mxGeometry relative="1" as="geometry">
            <Array as="points">
              <mxPoint x="700" y="965" />
            </Array>
          </mxGeometry>
        </mxCell>
        <mxCell id="BiM31fZZ7WOJlMN7RB7W-12" value="&lt;span style=&quot;font-family: &amp;quot;Times New Roman&amp;quot;, serif;&quot;&gt;K3.Kho&lt;/span&gt;&lt;br style=&quot;font-family: &amp;quot;Times New Roman&amp;quot;, serif;&quot;&gt;&lt;span style=&quot;font-family: &amp;quot;Times New Roman&amp;quot;, serif;&quot;&gt;thông tin sách&lt;/span&gt;" style="html=1;dashed=0;whiteSpace=wrap;shape=partialRectangle;right=0;left=0;" parent="1" vertex="1">
          <mxGeometry x="650" y="922" width="100" height="30" as="geometry" />
        </mxCell>
        <mxCell id="BiM31fZZ7WOJlMN7RB7W-13" style="edgeStyle=orthogonalEdgeStyle;rounded=0;orthogonalLoop=1;jettySize=auto;html=1;exitX=0.75;exitY=0;exitDx=0;exitDy=0;entryX=1;entryY=0;entryDx=0;entryDy=0;" parent="1" source="BiM31fZZ7WOJlMN7RB7W-14" target="BiM31fZZ7WOJlMN7RB7W-8" edge="1">
          <mxGeometry relative="1" as="geometry" />
        </mxCell>
        <mxCell id="BiM31fZZ7WOJlMN7RB7W-14" value="&lt;span style=&quot;font-family: &amp;quot;Times New Roman&amp;quot;, serif;&quot;&gt;K3.Kho&lt;/span&gt;&lt;br style=&quot;font-family: &amp;quot;Times New Roman&amp;quot;, serif;&quot;&gt;&lt;span style=&quot;font-family: &amp;quot;Times New Roman&amp;quot;, serif;&quot;&gt;thông tin sách&lt;/span&gt;" style="html=1;dashed=0;whiteSpace=wrap;shape=partialRectangle;right=0;left=0;" parent="1" vertex="1">
          <mxGeometry x="1070" y="602" width="100" height="30" as="geometry" />
        </mxCell>
        <mxCell id="BiM31fZZ7WOJlMN7RB7W-15" style="edgeStyle=orthogonalEdgeStyle;rounded=0;orthogonalLoop=1;jettySize=auto;html=1;entryX=0.5;entryY=0;entryDx=0;entryDy=0;" parent="1" source="BiM31fZZ7WOJlMN7RB7W-17" target="BiM31fZZ7WOJlMN7RB7W-3" edge="1">
          <mxGeometry relative="1" as="geometry" />
        </mxCell>
        <mxCell id="BiM31fZZ7WOJlMN7RB7W-16" style="edgeStyle=orthogonalEdgeStyle;rounded=0;orthogonalLoop=1;jettySize=auto;html=1;exitX=1;exitY=1;exitDx=0;exitDy=0;entryX=0;entryY=0.5;entryDx=0;entryDy=0;" parent="1" source="BiM31fZZ7WOJlMN7RB7W-17" target="BiM31fZZ7WOJlMN7RB7W-8" edge="1">
          <mxGeometry relative="1" as="geometry" />
        </mxCell>
        <mxCell id="BiM31fZZ7WOJlMN7RB7W-17" value="&amp;nbsp; &amp;nbsp; &amp;nbsp; &amp;nbsp; &amp;nbsp;&amp;nbsp;B1.&lt;span style=&quot;text-align: center;&quot;&gt;Nghiệp&amp;nbsp;&lt;/span&gt;&lt;span style=&quot;text-align: center;&quot;&gt;vụ thủ thư&lt;/span&gt;" style="html=1;dashed=0;whiteSpace=wrap;shape=mxgraph.dfd.dataStoreID;align=left;spacingLeft=3;points=[[0,0],[0.5,0],[1,0],[0,0.5],[1,0.5],[0,1],[0.5,1],[1,1]];" parent="1" vertex="1">
          <mxGeometry x="620" y="260" width="160" height="65" as="geometry" />
        </mxCell>
        <mxCell id="BiM31fZZ7WOJlMN7RB7W-18" value="M1.Bạn đọc" style="rounded=0;whiteSpace=wrap;html=1;" parent="1" vertex="1">
          <mxGeometry x="330" y="717.25" width="160" height="65.5" as="geometry" />
        </mxCell>
        <mxCell id="BiM31fZZ7WOJlMN7RB7W-19" style="edgeStyle=orthogonalEdgeStyle;rounded=0;orthogonalLoop=1;jettySize=auto;html=1;" parent="1" source="BiM31fZZ7WOJlMN7RB7W-21" edge="1">
          <mxGeometry relative="1" as="geometry">
            <mxPoint x="970" y="980" as="targetPoint" />
            <Array as="points">
              <mxPoint x="970" y="1170" />
              <mxPoint x="970" y="1170" />
            </Array>
          </mxGeometry>
        </mxCell>
        <mxCell id="BiM31fZZ7WOJlMN7RB7W-20" style="edgeStyle=orthogonalEdgeStyle;rounded=0;orthogonalLoop=1;jettySize=auto;html=1;exitX=0.774;exitY=0.022;exitDx=0;exitDy=0;entryX=1;entryY=1;entryDx=0;entryDy=0;exitPerimeter=0;" parent="1" source="BiM31fZZ7WOJlMN7RB7W-21" target="BiM31fZZ7WOJlMN7RB7W-5" edge="1">
          <mxGeometry relative="1" as="geometry">
            <Array as="points" />
          </mxGeometry>
        </mxCell>
        <mxCell id="BiM31fZZ7WOJlMN7RB7W-21" value="&amp;nbsp; &amp;nbsp; &amp;nbsp; &amp;nbsp; &amp;nbsp;&amp;nbsp;B1.&lt;span style=&quot;text-align: center;&quot;&gt;Nghiệp&amp;nbsp;&lt;/span&gt;&lt;span style=&quot;text-align: center;&quot;&gt;vụ thủ thư&lt;/span&gt;" style="html=1;dashed=0;whiteSpace=wrap;shape=mxgraph.dfd.dataStoreID;align=left;spacingLeft=3;points=[[0,0],[0.5,0],[1,0],[0,0.5],[1,0.5],[0,1],[0.5,1],[1,1]];" parent="1" vertex="1">
          <mxGeometry x="888" y="1170" width="160" height="65" as="geometry" />
        </mxCell>
        <mxCell id="BiM31fZZ7WOJlMN7RB7W-22" value="&amp;nbsp;Cho phép mượn sách" style="text;html=1;align=center;verticalAlign=middle;resizable=0;points=[];autosize=1;strokeColor=none;fillColor=none;rotation=90;" parent="1" vertex="1">
          <mxGeometry x="640" y="518" width="140" height="30" as="geometry" />
        </mxCell>
        <mxCell id="BiM31fZZ7WOJlMN7RB7W-23" value="Cho mượn" style="text;html=1;align=center;verticalAlign=middle;resizable=0;points=[];autosize=1;strokeColor=none;fillColor=none;" parent="1" vertex="1">
          <mxGeometry x="515" y="722" width="80" height="30" as="geometry" />
        </mxCell>
        <mxCell id="BiM31fZZ7WOJlMN7RB7W-24" value="lấy sách" style="text;html=1;align=center;verticalAlign=middle;resizable=0;points=[];autosize=1;strokeColor=none;fillColor=none;" parent="1" vertex="1">
          <mxGeometry x="645" y="828" width="70" height="30" as="geometry" />
        </mxCell>
        <mxCell id="BiM31fZZ7WOJlMN7RB7W-25" value="thông tin sách" style="text;html=1;align=center;verticalAlign=middle;resizable=0;points=[];autosize=1;strokeColor=none;fillColor=none;rotation=90;" parent="1" vertex="1">
          <mxGeometry x="920" y="748" width="100" height="30" as="geometry" />
        </mxCell>
        <mxCell id="BiM31fZZ7WOJlMN7RB7W-26" value="Yêu cầu đếm/ kiểm kê" style="text;html=1;align=center;verticalAlign=middle;resizable=0;points=[];autosize=1;strokeColor=none;fillColor=none;rotation=90;" parent="1" vertex="1">
          <mxGeometry x="730" y="468" width="140" height="30" as="geometry" />
        </mxCell>
        <mxCell id="BiM31fZZ7WOJlMN7RB7W-27" value="Biên bản" style="text;html=1;align=center;verticalAlign=middle;resizable=0;points=[];autosize=1;strokeColor=none;fillColor=none;" parent="1" vertex="1">
          <mxGeometry x="1050" y="540" width="70" height="30" as="geometry" />
        </mxCell>
        <mxCell id="BiM31fZZ7WOJlMN7RB7W-28" value="Nhập sách" style="text;html=1;align=center;verticalAlign=middle;resizable=0;points=[];autosize=1;strokeColor=none;fillColor=none;rotation=90;" parent="1" vertex="1">
          <mxGeometry x="950" y="1060" width="80" height="30" as="geometry" />
        </mxCell>
        <mxCell id="BiM31fZZ7WOJlMN7RB7W-29" value="Thêm sách" style="text;html=1;align=center;verticalAlign=middle;resizable=0;points=[];autosize=1;strokeColor=none;fillColor=none;" parent="1" vertex="1">
          <mxGeometry x="780" y="908" width="80" height="30" as="geometry" />
        </mxCell>
        <mxCell id="BiM31fZZ7WOJlMN7RB7W-30" value="Thanh lọc" style="text;html=1;align=center;verticalAlign=middle;resizable=0;points=[];autosize=1;strokeColor=none;fillColor=none;" parent="1" vertex="1">
          <mxGeometry x="760" y="970" width="80" height="30" as="geometry" />
        </mxCell>
        <mxCell id="BiM31fZZ7WOJlMN7RB7W-31" value="Yêu cầu thanh lọc" style="text;html=1;align=center;verticalAlign=middle;resizable=0;points=[];autosize=1;strokeColor=none;fillColor=none;rotation=90;" parent="1" vertex="1">
          <mxGeometry x="960" y="1060" width="120" height="30" as="geometry" />
        </mxCell>
        <mxCell id="BiM31fZZ7WOJlMN7RB7W-32" value="thông tin đếm kiểm kê" style="text;html=1;align=center;verticalAlign=middle;resizable=0;points=[];autosize=1;strokeColor=none;fillColor=none;rotation=90;" parent="1" vertex="1">
          <mxGeometry x="910" y="358" width="140" height="30" as="geometry" />
        </mxCell>
        <mxCell id="BiM31fZZ7WOJlMN7RB7W-33" style="edgeStyle=orthogonalEdgeStyle;rounded=0;orthogonalLoop=1;jettySize=auto;html=1;exitX=1;exitY=0.75;exitDx=0;exitDy=0;entryX=0.017;entryY=0.7;entryDx=0;entryDy=0;entryPerimeter=0;" parent="1" source="BiM31fZZ7WOJlMN7RB7W-18" target="BiM31fZZ7WOJlMN7RB7W-3" edge="1">
          <mxGeometry relative="1" as="geometry" />
        </mxCell>
        <mxCell id="BiM31fZZ7WOJlMN7RB7W-34" value="Cung cấp thông tin" style="text;html=1;align=center;verticalAlign=middle;resizable=0;points=[];autosize=1;strokeColor=none;fillColor=none;" parent="1" vertex="1">
          <mxGeometry x="500" y="768" width="120" height="30" as="geometry" />
        </mxCell>
        <mxCell id="MiFlAIez0qvgZsJip7fz-2" value="thông tin vị trí" style="text;html=1;align=center;verticalAlign=middle;resizable=0;points=[];autosize=1;strokeColor=none;fillColor=none;rotation=90;" parent="1" vertex="1">
          <mxGeometry x="970" y="692" width="100" height="30" as="geometry" />
        </mxCell>
        <mxCell id="MiFlAIez0qvgZsJip7fz-4" value="thông tin vị trí" style="text;html=1;align=center;verticalAlign=middle;resizable=0;points=[];autosize=1;strokeColor=none;fillColor=none;rotation=90;" parent="1" vertex="1">
          <mxGeometry x="850" y="782.75" width="100" height="30" as="geometry" />
        </mxCell>
        <mxCell id="Zo3LOEhpQ1NWYAyu30CJ-1" value="&lt;span style=&quot;line-height: 130%; font-family: &amp;quot;Times New Roman&amp;quot;, serif;&quot; lang=&quot;VI&quot;&gt;&lt;font style=&quot;font-size: 12px;&quot;&gt;K4.Kho dữ liệu mượn trả mật&lt;/font&gt;&lt;/span&gt;" style="html=1;dashed=0;whiteSpace=wrap;shape=partialRectangle;right=0;left=0;" vertex="1" parent="1">
          <mxGeometry x="770" y="620" width="100" height="30" as="geometry" />
        </mxCell>
      </root>
    </mxGraphModel>
  </diagram>
  <diagram id="9iPPM1Acf9GBcNDBGXju" name="DFD_2_THuthu">
    <mxGraphModel dx="880" dy="1220" grid="1" gridSize="10" guides="1" tooltips="1" connect="1" arrows="1" fold="1" page="1" pageScale="1" pageWidth="1169" pageHeight="1654" math="0" shadow="0">
      <root>
        <mxCell id="0" />
        <mxCell id="1" parent="0" />
        <mxCell id="ch65il-LAxWwvaQbPswF-1" value="" style="endArrow=none;dashed=1;html=1;rounded=0;" parent="1" edge="1">
          <mxGeometry width="50" height="50" relative="1" as="geometry">
            <mxPoint x="2680" y="200" as="sourcePoint" />
            <mxPoint x="2680" y="200" as="targetPoint" />
            <Array as="points">
              <mxPoint x="1560" y="200" />
              <mxPoint x="1560" y="1200" />
              <mxPoint x="2680" y="1200" />
            </Array>
          </mxGeometry>
        </mxCell>
        <mxCell id="bXZ0ybjpgKeLTYXX3pHM-14" value="Phiếu bồi thường" style="edgeLabel;html=1;align=center;verticalAlign=middle;resizable=0;points=[];rotation=90;" vertex="1" connectable="0" parent="ch65il-LAxWwvaQbPswF-1">
          <mxGeometry x="-0.7677" y="-5" relative="1" as="geometry">
            <mxPoint x="-3" y="-17" as="offset" />
          </mxGeometry>
        </mxCell>
        <mxCell id="vEN2frfrh9uhoCPEe1Sw-1" value="&lt;span style=&quot;white-space: pre;&quot;&gt;&#x9;&lt;/span&gt;B2. Quản&amp;nbsp;&lt;span style=&quot;text-align: center;&quot;&gt;lý sách&amp;nbsp; &amp;nbsp; &amp;nbsp; &amp;nbsp; &amp;nbsp; &amp;nbsp; &amp;nbsp; &amp;nbsp; &amp;nbsp; &amp;nbsp; &amp;nbsp;không mật&lt;/span&gt;" style="html=1;dashed=0;whiteSpace=wrap;shape=mxgraph.dfd.dataStoreID;align=left;spacingLeft=3;points=[[0,0],[0.5,0],[1,0],[0,0.5],[1,0.5],[0,1],[0.5,1],[1,1]];" parent="1" vertex="1">
          <mxGeometry x="2763" y="370" width="160" height="65" as="geometry" />
        </mxCell>
        <mxCell id="vEN2frfrh9uhoCPEe1Sw-2" value="&amp;nbsp; &amp;nbsp; &amp;nbsp; &amp;nbsp; B3. Quản&amp;nbsp;&lt;span style=&quot;text-align: center;&quot;&gt;lý sách mật&lt;/span&gt;" style="html=1;dashed=0;whiteSpace=wrap;shape=mxgraph.dfd.dataStoreID;align=left;spacingLeft=3;points=[[0,0],[0.5,0],[1,0],[0,0.5],[1,0.5],[0,1],[0.5,1],[1,1]];" parent="1" vertex="1">
          <mxGeometry x="2763" y="1003" width="160" height="65" as="geometry" />
        </mxCell>
        <mxCell id="Fb69zdqyYalxa-Qp_HVR-1" style="edgeStyle=orthogonalEdgeStyle;rounded=0;orthogonalLoop=1;jettySize=auto;html=1;entryX=0;entryY=0.5;entryDx=0;entryDy=0;" parent="1" source="vEN2frfrh9uhoCPEe1Sw-3" target="vEN2frfrh9uhoCPEe1Sw-6" edge="1">
          <mxGeometry relative="1" as="geometry">
            <Array as="points">
              <mxPoint x="1520" y="984" />
              <mxPoint x="1520" y="1077" />
            </Array>
          </mxGeometry>
        </mxCell>
        <mxCell id="Fb69zdqyYalxa-Qp_HVR-2" style="edgeStyle=orthogonalEdgeStyle;rounded=0;orthogonalLoop=1;jettySize=auto;html=1;exitX=1;exitY=0.25;exitDx=0;exitDy=0;entryX=0.5;entryY=1;entryDx=0;entryDy=0;" parent="1" source="vEN2frfrh9uhoCPEe1Sw-3" target="vEN2frfrh9uhoCPEe1Sw-15" edge="1">
          <mxGeometry relative="1" as="geometry" />
        </mxCell>
        <mxCell id="KGq58yJzalIeG65Db61i-5" style="edgeStyle=orthogonalEdgeStyle;rounded=0;orthogonalLoop=1;jettySize=auto;html=1;entryX=0;entryY=0;entryDx=0;entryDy=0;" parent="1" source="vEN2frfrh9uhoCPEe1Sw-3" target="vEN2frfrh9uhoCPEe1Sw-10" edge="1">
          <mxGeometry relative="1" as="geometry">
            <Array as="points">
              <mxPoint x="2177" y="1010" />
            </Array>
          </mxGeometry>
        </mxCell>
        <mxCell id="vEN2frfrh9uhoCPEe1Sw-3" value="M1.Bạn đọc" style="rounded=0;whiteSpace=wrap;html=1;" parent="1" vertex="1">
          <mxGeometry x="1360" y="954" width="120" height="60" as="geometry" />
        </mxCell>
        <mxCell id="Yr9XN3frfgDYRgUrVWLw-19" style="edgeStyle=orthogonalEdgeStyle;rounded=0;orthogonalLoop=1;jettySize=auto;html=1;entryX=0.5;entryY=0;entryDx=0;entryDy=0;" parent="1" source="vEN2frfrh9uhoCPEe1Sw-4" target="vEN2frfrh9uhoCPEe1Sw-16" edge="1">
          <mxGeometry relative="1" as="geometry" />
        </mxCell>
        <mxCell id="Yr9XN3frfgDYRgUrVWLw-22" style="edgeStyle=orthogonalEdgeStyle;rounded=0;orthogonalLoop=1;jettySize=auto;html=1;entryX=0.5;entryY=0;entryDx=0;entryDy=0;" parent="1" source="vEN2frfrh9uhoCPEe1Sw-4" target="vEN2frfrh9uhoCPEe1Sw-10" edge="1">
          <mxGeometry relative="1" as="geometry">
            <Array as="points">
              <mxPoint x="2850" y="870" />
              <mxPoint x="2220" y="870" />
            </Array>
          </mxGeometry>
        </mxCell>
        <mxCell id="vEN2frfrh9uhoCPEe1Sw-4" value="MT1.Thư viện" style="rounded=0;whiteSpace=wrap;html=1;" parent="1" vertex="1">
          <mxGeometry x="2790" y="603" width="120" height="60" as="geometry" />
        </mxCell>
        <mxCell id="Yr9XN3frfgDYRgUrVWLw-12" style="edgeStyle=orthogonalEdgeStyle;rounded=0;orthogonalLoop=1;jettySize=auto;html=1;entryX=0.5;entryY=0;entryDx=0;entryDy=0;" parent="1" source="vEN2frfrh9uhoCPEe1Sw-5" target="vEN2frfrh9uhoCPEe1Sw-14" edge="1">
          <mxGeometry relative="1" as="geometry" />
        </mxCell>
        <mxCell id="Yr9XN3frfgDYRgUrVWLw-30" style="edgeStyle=orthogonalEdgeStyle;rounded=0;orthogonalLoop=1;jettySize=auto;html=1;exitX=1;exitY=0.25;exitDx=0;exitDy=0;entryX=0;entryY=0.5;entryDx=0;entryDy=0;" parent="1" source="vEN2frfrh9uhoCPEe1Sw-5" target="vEN2frfrh9uhoCPEe1Sw-7" edge="1">
          <mxGeometry relative="1" as="geometry">
            <Array as="points">
              <mxPoint x="1530" y="415" />
              <mxPoint x="1530" y="320" />
            </Array>
          </mxGeometry>
        </mxCell>
        <mxCell id="KGq58yJzalIeG65Db61i-4" style="edgeStyle=orthogonalEdgeStyle;rounded=0;orthogonalLoop=1;jettySize=auto;html=1;entryX=0;entryY=0.5;entryDx=0;entryDy=0;exitX=0;exitY=0.5;exitDx=0;exitDy=0;exitPerimeter=0;" parent="1" source="vEN2frfrh9uhoCPEe1Sw-5" target="vEN2frfrh9uhoCPEe1Sw-10" edge="1">
          <mxGeometry relative="1" as="geometry">
            <mxPoint x="1350" y="440" as="sourcePoint" />
            <mxPoint x="2140.000000000018" y="1120.0000000000005" as="targetPoint" />
            <Array as="points">
              <mxPoint x="1290" y="430" />
              <mxPoint x="1290" y="1170" />
              <mxPoint x="2140" y="1170" />
              <mxPoint x="2140" y="1078" />
            </Array>
          </mxGeometry>
        </mxCell>
        <mxCell id="vEN2frfrh9uhoCPEe1Sw-5" value="M2.Quản lý" style="rounded=0;whiteSpace=wrap;html=1;" parent="1" vertex="1">
          <mxGeometry x="1360" y="400" width="120" height="60" as="geometry" />
        </mxCell>
        <mxCell id="Fb69zdqyYalxa-Qp_HVR-3" style="edgeStyle=orthogonalEdgeStyle;rounded=0;orthogonalLoop=1;jettySize=auto;html=1;exitX=1;exitY=0.5;exitDx=0;exitDy=0;entryX=0.5;entryY=1;entryDx=0;entryDy=0;" parent="1" source="vEN2frfrh9uhoCPEe1Sw-6" target="vEN2frfrh9uhoCPEe1Sw-13" edge="1">
          <mxGeometry relative="1" as="geometry">
            <mxPoint x="2090" y="1076.7692307692305" as="targetPoint" />
            <Array as="points">
              <mxPoint x="1840" y="1077" />
              <mxPoint x="1840" y="620" />
              <mxPoint x="1940" y="620" />
            </Array>
          </mxGeometry>
        </mxCell>
        <mxCell id="Yr9XN3frfgDYRgUrVWLw-9" style="edgeStyle=orthogonalEdgeStyle;rounded=0;orthogonalLoop=1;jettySize=auto;html=1;entryX=0;entryY=0.5;entryDx=0;entryDy=0;" parent="1" source="vEN2frfrh9uhoCPEe1Sw-6" target="Yr9XN3frfgDYRgUrVWLw-1" edge="1">
          <mxGeometry relative="1" as="geometry">
            <Array as="points">
              <mxPoint x="1700" y="1313" />
            </Array>
          </mxGeometry>
        </mxCell>
        <mxCell id="Yr9XN3frfgDYRgUrVWLw-10" style="edgeStyle=orthogonalEdgeStyle;rounded=0;orthogonalLoop=1;jettySize=auto;html=1;exitX=1;exitY=1;exitDx=0;exitDy=0;entryX=0.5;entryY=1;entryDx=0;entryDy=0;" parent="1" source="vEN2frfrh9uhoCPEe1Sw-6" target="Yr9XN3frfgDYRgUrVWLw-2" edge="1">
          <mxGeometry relative="1" as="geometry">
            <Array as="points">
              <mxPoint x="1742" y="1400" />
              <mxPoint x="2440" y="1400" />
            </Array>
          </mxGeometry>
        </mxCell>
        <mxCell id="Yr9XN3frfgDYRgUrVWLw-11" style="edgeStyle=orthogonalEdgeStyle;rounded=0;orthogonalLoop=1;jettySize=auto;html=1;exitX=1;exitY=0;exitDx=0;exitDy=0;entryX=0;entryY=0.5;entryDx=0;entryDy=0;" parent="1" source="vEN2frfrh9uhoCPEe1Sw-6" target="vEN2frfrh9uhoCPEe1Sw-14" edge="1">
          <mxGeometry relative="1" as="geometry">
            <Array as="points">
              <mxPoint x="1800" y="1049" />
              <mxPoint x="1800" y="720" />
            </Array>
          </mxGeometry>
        </mxCell>
        <mxCell id="fszHum3gF-sAznwVAjQx-8" style="edgeStyle=orthogonalEdgeStyle;rounded=0;orthogonalLoop=1;jettySize=auto;html=1;exitX=1;exitY=1;exitDx=0;exitDy=0;entryX=0;entryY=0;entryDx=0;entryDy=0;" parent="1" source="vEN2frfrh9uhoCPEe1Sw-6" target="fszHum3gF-sAznwVAjQx-7" edge="1">
          <mxGeometry relative="1" as="geometry" />
        </mxCell>
        <mxCell id="vEN2frfrh9uhoCPEe1Sw-6" value="C01. Tiếp nhận yêu cầu từ bạn đọc" style="ellipse;whiteSpace=wrap;html=1;" parent="1" vertex="1">
          <mxGeometry x="1640" y="1037" width="120" height="80" as="geometry" />
        </mxCell>
        <mxCell id="Yr9XN3frfgDYRgUrVWLw-28" style="edgeStyle=orthogonalEdgeStyle;rounded=0;orthogonalLoop=1;jettySize=auto;html=1;exitX=0.5;exitY=1;exitDx=0;exitDy=0;" parent="1" source="vEN2frfrh9uhoCPEe1Sw-7" edge="1">
          <mxGeometry relative="1" as="geometry">
            <mxPoint x="1450" y="950" as="targetPoint" />
            <Array as="points">
              <mxPoint x="1590" y="360" />
              <mxPoint x="1590" y="655" />
              <mxPoint x="1450" y="655" />
            </Array>
          </mxGeometry>
        </mxCell>
        <mxCell id="vEN2frfrh9uhoCPEe1Sw-7" value="C06.&amp;nbsp;&lt;span style=&quot;text-align: left;&quot; lang=&quot;VI&quot;&gt;So khớp thông tin / yêu cầu điều chỉnh&lt;/span&gt;" style="ellipse;whiteSpace=wrap;html=1;" parent="1" vertex="1">
          <mxGeometry x="1640" y="280" width="120" height="80" as="geometry" />
        </mxCell>
        <mxCell id="KZgxrj0CJLhBbLLmgsD1-3" style="edgeStyle=orthogonalEdgeStyle;rounded=0;orthogonalLoop=1;jettySize=auto;html=1;exitX=1;exitY=0;exitDx=0;exitDy=0;entryX=0.5;entryY=1;entryDx=0;entryDy=0;" parent="1" source="vEN2frfrh9uhoCPEe1Sw-8" target="bXZ0ybjpgKeLTYXX3pHM-1" edge="1">
          <mxGeometry relative="1" as="geometry">
            <mxPoint x="2050" y="840" as="targetPoint" />
          </mxGeometry>
        </mxCell>
        <mxCell id="bXZ0ybjpgKeLTYXX3pHM-8" style="edgeStyle=orthogonalEdgeStyle;rounded=0;orthogonalLoop=1;jettySize=auto;html=1;entryX=0.5;entryY=1;entryDx=0;entryDy=0;" edge="1" parent="1" source="vEN2frfrh9uhoCPEe1Sw-8" target="mYDj6SqjAQ-WQE26mWQE-4">
          <mxGeometry relative="1" as="geometry" />
        </mxCell>
        <mxCell id="vEN2frfrh9uhoCPEe1Sw-8" value="C07. Lưu thông tin mượn/trả" style="ellipse;whiteSpace=wrap;html=1;" parent="1" vertex="1">
          <mxGeometry x="1880" y="877" width="120" height="80" as="geometry" />
        </mxCell>
        <mxCell id="Yr9XN3frfgDYRgUrVWLw-31" style="edgeStyle=orthogonalEdgeStyle;rounded=0;orthogonalLoop=1;jettySize=auto;html=1;entryX=0;entryY=0.5;entryDx=0;entryDy=0;" parent="1" source="vEN2frfrh9uhoCPEe1Sw-9" target="Fb69zdqyYalxa-Qp_HVR-7" edge="1">
          <mxGeometry relative="1" as="geometry">
            <Array as="points">
              <mxPoint x="2220" y="80" />
            </Array>
          </mxGeometry>
        </mxCell>
        <mxCell id="KZgxrj0CJLhBbLLmgsD1-7" style="edgeStyle=orthogonalEdgeStyle;rounded=0;orthogonalLoop=1;jettySize=auto;html=1;exitX=1;exitY=0.5;exitDx=0;exitDy=0;entryX=0.5;entryY=0;entryDx=0;entryDy=0;" parent="1" source="vEN2frfrh9uhoCPEe1Sw-9" target="Yr9XN3frfgDYRgUrVWLw-16" edge="1">
          <mxGeometry relative="1" as="geometry">
            <Array as="points">
              <mxPoint x="2280" y="400" />
              <mxPoint x="2410" y="400" />
            </Array>
          </mxGeometry>
        </mxCell>
        <mxCell id="fszHum3gF-sAznwVAjQx-1" style="edgeStyle=orthogonalEdgeStyle;rounded=0;orthogonalLoop=1;jettySize=auto;html=1;entryX=0;entryY=0;entryDx=0;entryDy=0;" parent="1" source="vEN2frfrh9uhoCPEe1Sw-9" target="vEN2frfrh9uhoCPEe1Sw-12" edge="1">
          <mxGeometry relative="1" as="geometry" />
        </mxCell>
        <mxCell id="bXZ0ybjpgKeLTYXX3pHM-6" style="edgeStyle=orthogonalEdgeStyle;rounded=0;orthogonalLoop=1;jettySize=auto;html=1;exitX=0;exitY=0;exitDx=0;exitDy=0;entryX=1;entryY=0.5;entryDx=0;entryDy=0;" edge="1" parent="1" source="vEN2frfrh9uhoCPEe1Sw-9" target="bXZ0ybjpgKeLTYXX3pHM-3">
          <mxGeometry relative="1" as="geometry">
            <Array as="points">
              <mxPoint x="2178" y="205" />
              <mxPoint x="2178" y="100" />
            </Array>
          </mxGeometry>
        </mxCell>
        <mxCell id="bXZ0ybjpgKeLTYXX3pHM-7" style="edgeStyle=orthogonalEdgeStyle;rounded=0;orthogonalLoop=1;jettySize=auto;html=1;entryX=1;entryY=0.5;entryDx=0;entryDy=0;" edge="1" parent="1" source="vEN2frfrh9uhoCPEe1Sw-9" target="bXZ0ybjpgKeLTYXX3pHM-5">
          <mxGeometry relative="1" as="geometry" />
        </mxCell>
        <mxCell id="vEN2frfrh9uhoCPEe1Sw-9" value="C10. Phạt" style="ellipse;whiteSpace=wrap;html=1;" parent="1" vertex="1">
          <mxGeometry x="2160" y="280" width="120" height="80" as="geometry" />
        </mxCell>
        <mxCell id="Yr9XN3frfgDYRgUrVWLw-3" style="edgeStyle=orthogonalEdgeStyle;rounded=0;orthogonalLoop=1;jettySize=auto;html=1;exitX=0.5;exitY=1;exitDx=0;exitDy=0;entryX=0.5;entryY=0;entryDx=0;entryDy=0;" parent="1" source="vEN2frfrh9uhoCPEe1Sw-10" target="Yr9XN3frfgDYRgUrVWLw-1" edge="1">
          <mxGeometry relative="1" as="geometry">
            <Array as="points">
              <mxPoint x="2220" y="1220" />
              <mxPoint x="2000" y="1220" />
            </Array>
          </mxGeometry>
        </mxCell>
        <mxCell id="Yr9XN3frfgDYRgUrVWLw-4" style="edgeStyle=orthogonalEdgeStyle;rounded=0;orthogonalLoop=1;jettySize=auto;html=1;entryX=0.5;entryY=0;entryDx=0;entryDy=0;" parent="1" source="vEN2frfrh9uhoCPEe1Sw-10" target="Yr9XN3frfgDYRgUrVWLw-2" edge="1">
          <mxGeometry relative="1" as="geometry">
            <Array as="points">
              <mxPoint x="2220" y="1220" />
              <mxPoint x="2440" y="1220" />
            </Array>
          </mxGeometry>
        </mxCell>
        <mxCell id="Yr9XN3frfgDYRgUrVWLw-29" style="edgeStyle=orthogonalEdgeStyle;rounded=0;orthogonalLoop=1;jettySize=auto;html=1;entryX=0.5;entryY=0;entryDx=0;entryDy=0;" parent="1" source="vEN2frfrh9uhoCPEe1Sw-10" target="vEN2frfrh9uhoCPEe1Sw-11" edge="1">
          <mxGeometry relative="1" as="geometry">
            <Array as="points">
              <mxPoint x="2320" y="1078" />
              <mxPoint x="2320" y="1017" />
              <mxPoint x="2500" y="1017" />
            </Array>
          </mxGeometry>
        </mxCell>
        <mxCell id="fszHum3gF-sAznwVAjQx-5" style="edgeStyle=orthogonalEdgeStyle;rounded=0;orthogonalLoop=1;jettySize=auto;html=1;exitX=0;exitY=1;exitDx=0;exitDy=0;entryX=0.5;entryY=1;entryDx=0;entryDy=0;" parent="1" source="vEN2frfrh9uhoCPEe1Sw-10" target="bXZ0ybjpgKeLTYXX3pHM-2" edge="1">
          <mxGeometry relative="1" as="geometry">
            <mxPoint x="2030" y="1120" as="targetPoint" />
          </mxGeometry>
        </mxCell>
        <mxCell id="vEN2frfrh9uhoCPEe1Sw-10" value="C14. Nhập sách" style="ellipse;whiteSpace=wrap;html=1;" parent="1" vertex="1">
          <mxGeometry x="2160" y="1037" width="120" height="83" as="geometry" />
        </mxCell>
        <mxCell id="Yr9XN3frfgDYRgUrVWLw-6" style="edgeStyle=orthogonalEdgeStyle;rounded=0;orthogonalLoop=1;jettySize=auto;html=1;entryX=1;entryY=0.5;entryDx=0;entryDy=0;" parent="1" source="vEN2frfrh9uhoCPEe1Sw-11" target="Yr9XN3frfgDYRgUrVWLw-1" edge="1">
          <mxGeometry relative="1" as="geometry">
            <Array as="points">
              <mxPoint x="2410" y="1077" />
              <mxPoint x="2410" y="1160" />
              <mxPoint x="2260" y="1160" />
              <mxPoint x="2260" y="1312" />
            </Array>
          </mxGeometry>
        </mxCell>
        <mxCell id="KZgxrj0CJLhBbLLmgsD1-13" style="edgeStyle=orthogonalEdgeStyle;rounded=0;orthogonalLoop=1;jettySize=auto;html=1;exitX=1;exitY=0;exitDx=0;exitDy=0;entryX=0.5;entryY=1;entryDx=0;entryDy=0;" parent="1" source="vEN2frfrh9uhoCPEe1Sw-11" target="KZgxrj0CJLhBbLLmgsD1-12" edge="1">
          <mxGeometry relative="1" as="geometry">
            <mxPoint x="2520" y="960" as="targetPoint" />
          </mxGeometry>
        </mxCell>
        <mxCell id="vEN2frfrh9uhoCPEe1Sw-11" value="C15. Biên&lt;br&gt;mục" style="ellipse;whiteSpace=wrap;html=1;" parent="1" vertex="1">
          <mxGeometry x="2440" y="1037" width="120" height="80" as="geometry" />
        </mxCell>
        <mxCell id="KZgxrj0CJLhBbLLmgsD1-2" style="edgeStyle=orthogonalEdgeStyle;rounded=0;orthogonalLoop=1;jettySize=auto;html=1;entryX=1;entryY=0.5;entryDx=0;entryDy=0;" parent="1" source="vEN2frfrh9uhoCPEe1Sw-12" target="Fb69zdqyYalxa-Qp_HVR-7" edge="1">
          <mxGeometry relative="1" as="geometry">
            <Array as="points">
              <mxPoint x="2500" y="80" />
            </Array>
          </mxGeometry>
        </mxCell>
        <mxCell id="vEN2frfrh9uhoCPEe1Sw-12" value="C04.&amp;nbsp;&lt;span style=&quot;text-align: left;&quot; lang=&quot;VI&quot;&gt;Báo cáo lên quản lý&lt;/span&gt;" style="ellipse;whiteSpace=wrap;html=1;" parent="1" vertex="1">
          <mxGeometry x="2440" y="290" width="120" height="80" as="geometry" />
        </mxCell>
        <mxCell id="Yr9XN3frfgDYRgUrVWLw-23" style="edgeStyle=orthogonalEdgeStyle;rounded=0;orthogonalLoop=1;jettySize=auto;html=1;entryX=0.5;entryY=0;entryDx=0;entryDy=0;exitX=0;exitY=1;exitDx=0;exitDy=0;" parent="1" source="vEN2frfrh9uhoCPEe1Sw-13" target="vEN2frfrh9uhoCPEe1Sw-3" edge="1">
          <mxGeometry relative="1" as="geometry">
            <Array as="points">
              <mxPoint x="1898" y="580" />
              <mxPoint x="1420" y="580" />
            </Array>
          </mxGeometry>
        </mxCell>
        <mxCell id="KZgxrj0CJLhBbLLmgsD1-6" style="edgeStyle=orthogonalEdgeStyle;rounded=0;orthogonalLoop=1;jettySize=auto;html=1;exitX=1;exitY=1;exitDx=0;exitDy=0;entryX=0;entryY=0.5;entryDx=0;entryDy=0;" parent="1" source="vEN2frfrh9uhoCPEe1Sw-13" target="Yr9XN3frfgDYRgUrVWLw-25" edge="1">
          <mxGeometry relative="1" as="geometry">
            <Array as="points">
              <mxPoint x="1990" y="506" />
              <mxPoint x="1990" y="538" />
              <mxPoint x="2000" y="538" />
              <mxPoint x="2000" y="573" />
            </Array>
          </mxGeometry>
        </mxCell>
        <mxCell id="vEN2frfrh9uhoCPEe1Sw-13" value="C02. Tạo mới / cấp lại thẻ thư viện" style="ellipse;whiteSpace=wrap;html=1;" parent="1" vertex="1">
          <mxGeometry x="1880" y="438" width="120" height="80" as="geometry" />
        </mxCell>
        <mxCell id="q9LJkRbabQzuLHBZXVqr-1" style="edgeStyle=orthogonalEdgeStyle;rounded=0;orthogonalLoop=1;jettySize=auto;html=1;exitX=0;exitY=0;exitDx=0;exitDy=0;entryX=0.5;entryY=1;entryDx=0;entryDy=0;" parent="1" source="vEN2frfrh9uhoCPEe1Sw-14" target="Yr9XN3frfgDYRgUrVWLw-25" edge="1">
          <mxGeometry relative="1" as="geometry" />
        </mxCell>
        <mxCell id="vEN2frfrh9uhoCPEe1Sw-14" value="C03.&lt;br&gt;Hủy bạn đọc" style="ellipse;whiteSpace=wrap;html=1;" parent="1" vertex="1">
          <mxGeometry x="2160" y="680" width="120" height="80" as="geometry" />
        </mxCell>
        <mxCell id="KGq58yJzalIeG65Db61i-6" style="edgeStyle=orthogonalEdgeStyle;rounded=0;orthogonalLoop=1;jettySize=auto;html=1;entryX=0.5;entryY=0;entryDx=0;entryDy=0;" parent="1" source="vEN2frfrh9uhoCPEe1Sw-15" target="mYDj6SqjAQ-WQE26mWQE-4" edge="1">
          <mxGeometry relative="1" as="geometry">
            <mxPoint x="2025" y="740" as="targetPoint" />
            <Array as="points">
              <mxPoint x="1980" y="703" />
            </Array>
          </mxGeometry>
        </mxCell>
        <mxCell id="e-sfXhs4ZeaJ81gP7CqI-10" style="edgeStyle=orthogonalEdgeStyle;rounded=0;orthogonalLoop=1;jettySize=auto;html=1;entryX=0;entryY=0.5;entryDx=0;entryDy=0;" parent="1" source="vEN2frfrh9uhoCPEe1Sw-15" target="Yr9XN3frfgDYRgUrVWLw-17" edge="1">
          <mxGeometry relative="1" as="geometry">
            <Array as="points">
              <mxPoint x="1330" y="730" />
              <mxPoint x="1330" y="103" />
            </Array>
          </mxGeometry>
        </mxCell>
        <mxCell id="bXZ0ybjpgKeLTYXX3pHM-10" style="edgeStyle=orthogonalEdgeStyle;rounded=0;orthogonalLoop=1;jettySize=auto;html=1;exitX=1;exitY=1;exitDx=0;exitDy=0;entryX=0.25;entryY=0;entryDx=0;entryDy=0;" edge="1" parent="1" source="vEN2frfrh9uhoCPEe1Sw-15" target="bXZ0ybjpgKeLTYXX3pHM-1">
          <mxGeometry relative="1" as="geometry" />
        </mxCell>
        <mxCell id="vEN2frfrh9uhoCPEe1Sw-15" value="C09. Trả sách" style="ellipse;whiteSpace=wrap;html=1;" parent="1" vertex="1">
          <mxGeometry x="1640" y="663" width="120" height="80" as="geometry" />
        </mxCell>
        <mxCell id="Yr9XN3frfgDYRgUrVWLw-7" style="edgeStyle=orthogonalEdgeStyle;rounded=0;orthogonalLoop=1;jettySize=auto;html=1;entryX=0;entryY=0.5;entryDx=0;entryDy=0;" parent="1" source="vEN2frfrh9uhoCPEe1Sw-16" target="vEN2frfrh9uhoCPEe1Sw-1" edge="1">
          <mxGeometry relative="1" as="geometry" />
        </mxCell>
        <mxCell id="Yr9XN3frfgDYRgUrVWLw-8" style="edgeStyle=orthogonalEdgeStyle;rounded=0;orthogonalLoop=1;jettySize=auto;html=1;entryX=0;entryY=0.5;entryDx=0;entryDy=0;" parent="1" source="vEN2frfrh9uhoCPEe1Sw-16" target="vEN2frfrh9uhoCPEe1Sw-2" edge="1">
          <mxGeometry relative="1" as="geometry" />
        </mxCell>
        <mxCell id="fszHum3gF-sAznwVAjQx-9" style="edgeStyle=orthogonalEdgeStyle;rounded=0;orthogonalLoop=1;jettySize=auto;html=1;exitX=1;exitY=0;exitDx=0;exitDy=0;entryX=1;entryY=1;entryDx=0;entryDy=0;" parent="1" source="vEN2frfrh9uhoCPEe1Sw-16" target="vEN2frfrh9uhoCPEe1Sw-12" edge="1">
          <mxGeometry relative="1" as="geometry" />
        </mxCell>
        <mxCell id="vEN2frfrh9uhoCPEe1Sw-16" value="C13. Thanh lọc" style="ellipse;whiteSpace=wrap;html=1;" parent="1" vertex="1">
          <mxGeometry x="2440" y="680" width="120" height="80" as="geometry" />
        </mxCell>
        <mxCell id="KZgxrj0CJLhBbLLmgsD1-1" style="edgeStyle=orthogonalEdgeStyle;rounded=0;orthogonalLoop=1;jettySize=auto;html=1;entryX=0;entryY=0.5;entryDx=0;entryDy=0;" parent="1" source="Fb69zdqyYalxa-Qp_HVR-7" target="vEN2frfrh9uhoCPEe1Sw-12" edge="1">
          <mxGeometry relative="1" as="geometry">
            <Array as="points">
              <mxPoint x="2370" y="330" />
            </Array>
          </mxGeometry>
        </mxCell>
        <mxCell id="Fb69zdqyYalxa-Qp_HVR-7" value="M2.Quản lý" style="rounded=0;whiteSpace=wrap;html=1;" parent="1" vertex="1">
          <mxGeometry x="2310" y="50" width="120" height="60" as="geometry" />
        </mxCell>
        <mxCell id="Yr9XN3frfgDYRgUrVWLw-13" style="edgeStyle=orthogonalEdgeStyle;rounded=0;orthogonalLoop=1;jettySize=auto;html=1;exitX=0;exitY=0;exitDx=0;exitDy=0;" parent="1" source="Yr9XN3frfgDYRgUrVWLw-1" edge="1">
          <mxGeometry relative="1" as="geometry">
            <mxPoint x="1920.363636363636" y="960" as="targetPoint" />
          </mxGeometry>
        </mxCell>
        <mxCell id="Yr9XN3frfgDYRgUrVWLw-1" value="&amp;nbsp; &amp;nbsp; &amp;nbsp; &amp;nbsp; B3. Quản&amp;nbsp;&lt;span style=&quot;text-align: center;&quot;&gt;lý sách mật&lt;/span&gt;" style="html=1;dashed=0;whiteSpace=wrap;shape=mxgraph.dfd.dataStoreID;align=left;spacingLeft=3;points=[[0,0],[0.5,0],[1,0],[0,0.5],[1,0.5],[0,1],[0.5,1],[1,1]];" parent="1" vertex="1">
          <mxGeometry x="1920" y="1280" width="160" height="65" as="geometry" />
        </mxCell>
        <mxCell id="Yr9XN3frfgDYRgUrVWLw-15" style="edgeStyle=orthogonalEdgeStyle;rounded=0;orthogonalLoop=1;jettySize=auto;html=1;exitX=0;exitY=0;exitDx=0;exitDy=0;entryX=1;entryY=0.5;entryDx=0;entryDy=0;" parent="1" source="Yr9XN3frfgDYRgUrVWLw-2" target="vEN2frfrh9uhoCPEe1Sw-8" edge="1">
          <mxGeometry relative="1" as="geometry" />
        </mxCell>
        <mxCell id="Yr9XN3frfgDYRgUrVWLw-2" value="&lt;span style=&quot;white-space: pre;&quot;&gt;&#x9;&lt;/span&gt;B2. Quản&amp;nbsp;&lt;span style=&quot;text-align: center;&quot;&gt;lý sách&amp;nbsp; &amp;nbsp; &amp;nbsp; &amp;nbsp; &amp;nbsp; &amp;nbsp; &amp;nbsp; &amp;nbsp; &amp;nbsp; &amp;nbsp; &amp;nbsp;không mật&lt;/span&gt;" style="html=1;dashed=0;whiteSpace=wrap;shape=mxgraph.dfd.dataStoreID;align=left;spacingLeft=3;points=[[0,0],[0.5,0],[1,0],[0,0.5],[1,0.5],[0,1],[0.5,1],[1,1]];" parent="1" vertex="1">
          <mxGeometry x="2360" y="1280" width="160" height="65" as="geometry" />
        </mxCell>
        <mxCell id="Yr9XN3frfgDYRgUrVWLw-5" style="edgeStyle=orthogonalEdgeStyle;rounded=0;orthogonalLoop=1;jettySize=auto;html=1;entryX=0.724;entryY=-0.002;entryDx=0;entryDy=0;entryPerimeter=0;" parent="1" source="vEN2frfrh9uhoCPEe1Sw-11" target="Yr9XN3frfgDYRgUrVWLw-2" edge="1">
          <mxGeometry relative="1" as="geometry">
            <Array as="points">
              <mxPoint x="2500" y="1220" />
              <mxPoint x="2476" y="1220" />
            </Array>
          </mxGeometry>
        </mxCell>
        <mxCell id="Yr9XN3frfgDYRgUrVWLw-16" value="&lt;span style=&quot;font-family: &amp;quot;Times New Roman&amp;quot;, serif;&quot;&gt;K7.Kho&lt;/span&gt;&lt;br style=&quot;font-family: &amp;quot;Times New Roman&amp;quot;, serif;&quot;&gt;&lt;span style=&quot;font-family: &amp;quot;Times New Roman&amp;quot;, serif;&quot;&gt;lịch sử phạt&lt;/span&gt;" style="html=1;dashed=0;whiteSpace=wrap;shape=partialRectangle;right=0;left=0;" parent="1" vertex="1">
          <mxGeometry x="2360" y="470" width="100" height="30" as="geometry" />
        </mxCell>
        <mxCell id="Yr9XN3frfgDYRgUrVWLw-26" style="edgeStyle=orthogonalEdgeStyle;rounded=0;orthogonalLoop=1;jettySize=auto;html=1;exitX=0.5;exitY=1;exitDx=0;exitDy=0;entryX=0;entryY=0;entryDx=0;entryDy=0;" parent="1" source="Yr9XN3frfgDYRgUrVWLw-17" target="vEN2frfrh9uhoCPEe1Sw-7" edge="1">
          <mxGeometry relative="1" as="geometry" />
        </mxCell>
        <mxCell id="Yr9XN3frfgDYRgUrVWLw-17" value="&amp;nbsp; &amp;nbsp; &amp;nbsp; &amp;nbsp; B3. Quản&amp;nbsp;&lt;span style=&quot;text-align: center;&quot;&gt;lý sách mật&lt;/span&gt;" style="html=1;dashed=0;whiteSpace=wrap;shape=mxgraph.dfd.dataStoreID;align=left;spacingLeft=3;points=[[0,0],[0.5,0],[1,0],[0,0.5],[1,0.5],[0,1],[0.5,1],[1,1]];" parent="1" vertex="1">
          <mxGeometry x="1410" y="70" width="160" height="65" as="geometry" />
        </mxCell>
        <mxCell id="Yr9XN3frfgDYRgUrVWLw-27" style="edgeStyle=orthogonalEdgeStyle;rounded=0;orthogonalLoop=1;jettySize=auto;html=1;entryX=1;entryY=0;entryDx=0;entryDy=0;" parent="1" source="Yr9XN3frfgDYRgUrVWLw-18" target="vEN2frfrh9uhoCPEe1Sw-7" edge="1">
          <mxGeometry relative="1" as="geometry">
            <Array as="points">
              <mxPoint x="1850" y="210" />
              <mxPoint x="1742" y="210" />
            </Array>
          </mxGeometry>
        </mxCell>
        <mxCell id="Yr9XN3frfgDYRgUrVWLw-18" value="&lt;span style=&quot;white-space: pre;&quot;&gt;&#x9;&lt;/span&gt;B2. Quản&amp;nbsp;&lt;span style=&quot;text-align: center;&quot;&gt;lý sách&amp;nbsp; &amp;nbsp; &amp;nbsp; &amp;nbsp; &amp;nbsp; &amp;nbsp; &amp;nbsp; &amp;nbsp; &amp;nbsp; &amp;nbsp; &amp;nbsp;không mật&lt;/span&gt;" style="html=1;dashed=0;whiteSpace=wrap;shape=mxgraph.dfd.dataStoreID;align=left;spacingLeft=3;points=[[0,0],[0.5,0],[1,0],[0,0.5],[1,0.5],[0,1],[0.5,1],[1,1]];" parent="1" vertex="1">
          <mxGeometry x="1760" y="70" width="160" height="65" as="geometry" />
        </mxCell>
        <mxCell id="Yr9XN3frfgDYRgUrVWLw-20" style="edgeStyle=orthogonalEdgeStyle;rounded=0;orthogonalLoop=1;jettySize=auto;html=1;exitX=0;exitY=0.25;exitDx=0;exitDy=0;entryX=0.745;entryY=0.087;entryDx=0;entryDy=0;entryPerimeter=0;" parent="1" source="vEN2frfrh9uhoCPEe1Sw-4" target="vEN2frfrh9uhoCPEe1Sw-14" edge="1">
          <mxGeometry relative="1" as="geometry" />
        </mxCell>
        <mxCell id="KZgxrj0CJLhBbLLmgsD1-5" style="edgeStyle=orthogonalEdgeStyle;rounded=0;orthogonalLoop=1;jettySize=auto;html=1;exitX=0.5;exitY=0;exitDx=0;exitDy=0;entryX=1;entryY=0.5;entryDx=0;entryDy=0;" parent="1" source="Yr9XN3frfgDYRgUrVWLw-25" target="vEN2frfrh9uhoCPEe1Sw-13" edge="1">
          <mxGeometry relative="1" as="geometry" />
        </mxCell>
        <mxCell id="Yr9XN3frfgDYRgUrVWLw-25" value="&lt;span style=&quot;font-family: &amp;quot;Times New Roman&amp;quot;, serif;&quot;&gt;K1.Kho dữ liệu bạn đọc&lt;/span&gt;" style="html=1;dashed=0;whiteSpace=wrap;shape=partialRectangle;right=0;left=0;" parent="1" vertex="1">
          <mxGeometry x="2020" y="558" width="100" height="30" as="geometry" />
        </mxCell>
        <mxCell id="KZgxrj0CJLhBbLLmgsD1-8" value="" style="endArrow=classic;html=1;rounded=0;entryX=0.243;entryY=1.027;entryDx=0;entryDy=0;entryPerimeter=0;exitX=0.5;exitY=0;exitDx=0;exitDy=0;" parent="1" target="vEN2frfrh9uhoCPEe1Sw-12" edge="1" source="bXZ0ybjpgKeLTYXX3pHM-1">
          <mxGeometry width="50" height="50" relative="1" as="geometry">
            <mxPoint x="2090" y="730" as="sourcePoint" />
            <mxPoint x="2250" y="563" as="targetPoint" />
          </mxGeometry>
        </mxCell>
        <mxCell id="KZgxrj0CJLhBbLLmgsD1-9" value="" style="endArrow=classic;html=1;rounded=0;" parent="1" edge="1">
          <mxGeometry width="50" height="50" relative="1" as="geometry">
            <mxPoint x="2100" y="558" as="sourcePoint" />
            <mxPoint x="2440" y="350" as="targetPoint" />
          </mxGeometry>
        </mxCell>
        <mxCell id="KZgxrj0CJLhBbLLmgsD1-10" value="" style="endArrow=classic;html=1;rounded=0;entryX=0.5;entryY=1;entryDx=0;entryDy=0;" parent="1" target="vEN2frfrh9uhoCPEe1Sw-12" edge="1">
          <mxGeometry width="50" height="50" relative="1" as="geometry">
            <mxPoint x="2430" y="470" as="sourcePoint" />
            <mxPoint x="2560" y="343" as="targetPoint" />
          </mxGeometry>
        </mxCell>
        <mxCell id="KZgxrj0CJLhBbLLmgsD1-12" value="&lt;span style=&quot;font-family: &amp;quot;Times New Roman&amp;quot;, serif;&quot;&gt;K3.Kho&lt;/span&gt;&lt;br style=&quot;font-family: &amp;quot;Times New Roman&amp;quot;, serif;&quot;&gt;&lt;span style=&quot;font-family: &amp;quot;Times New Roman&amp;quot;, serif;&quot;&gt;thông tin sách&lt;/span&gt;" style="html=1;dashed=0;whiteSpace=wrap;shape=partialRectangle;right=0;left=0;" parent="1" vertex="1">
          <mxGeometry x="2550" y="918" width="100" height="30" as="geometry" />
        </mxCell>
        <mxCell id="KZgxrj0CJLhBbLLmgsD1-14" value="" style="endArrow=classic;html=1;rounded=0;exitX=0.5;exitY=0;exitDx=0;exitDy=0;" parent="1" source="KZgxrj0CJLhBbLLmgsD1-12" edge="1">
          <mxGeometry width="50" height="50" relative="1" as="geometry">
            <mxPoint x="2570" y="830" as="sourcePoint" />
            <mxPoint x="2510" y="370" as="targetPoint" />
          </mxGeometry>
        </mxCell>
        <mxCell id="KGq58yJzalIeG65Db61i-7" value="" style="endArrow=classic;html=1;rounded=0;entryX=1;entryY=0.5;entryDx=0;entryDy=0;exitX=0;exitY=0.5;exitDx=0;exitDy=0;" parent="1" source="Yr9XN3frfgDYRgUrVWLw-16" target="vEN2frfrh9uhoCPEe1Sw-7" edge="1">
          <mxGeometry width="50" height="50" relative="1" as="geometry">
            <mxPoint x="2020" y="340" as="sourcePoint" />
            <mxPoint x="2360" y="132" as="targetPoint" />
          </mxGeometry>
        </mxCell>
        <mxCell id="e-sfXhs4ZeaJ81gP7CqI-1" value="Cấp thẻ thư viện" style="text;html=1;align=center;verticalAlign=middle;resizable=0;points=[];autosize=1;strokeColor=none;fillColor=none;" parent="1" vertex="1">
          <mxGeometry x="1575" y="548" width="110" height="30" as="geometry" />
        </mxCell>
        <mxCell id="e-sfXhs4ZeaJ81gP7CqI-2" value="Yêu cầu điều chỉnh" style="text;html=1;align=center;verticalAlign=middle;resizable=0;points=[];autosize=1;strokeColor=none;fillColor=none;" parent="1" vertex="1">
          <mxGeometry x="1445" y="658" width="130" height="30" as="geometry" />
        </mxCell>
        <mxCell id="e-sfXhs4ZeaJ81gP7CqI-3" value="Cho phép mượn sách mật" style="text;html=1;align=center;verticalAlign=middle;resizable=0;points=[];autosize=1;strokeColor=none;fillColor=none;" parent="1" vertex="1">
          <mxGeometry x="1460" y="288" width="160" height="30" as="geometry" />
        </mxCell>
        <mxCell id="e-sfXhs4ZeaJ81gP7CqI-4" value="thông tin bạn đọc" style="text;html=1;align=center;verticalAlign=middle;resizable=0;points=[];autosize=1;strokeColor=none;fillColor=none;rotation=90;" parent="1" vertex="1">
          <mxGeometry x="1800" y="808" width="120" height="30" as="geometry" />
        </mxCell>
        <mxCell id="e-sfXhs4ZeaJ81gP7CqI-5" value="Yêu cầu&amp;nbsp;" style="text;html=1;align=center;verticalAlign=middle;resizable=0;points=[];autosize=1;strokeColor=none;fillColor=none;" parent="1" vertex="1">
          <mxGeometry x="1505" y="1048" width="70" height="30" as="geometry" />
        </mxCell>
        <mxCell id="e-sfXhs4ZeaJ81gP7CqI-6" value="Sách" style="text;html=1;align=center;verticalAlign=middle;resizable=0;points=[];autosize=1;strokeColor=none;fillColor=none;" parent="1" vertex="1">
          <mxGeometry x="1575" y="948" width="50" height="30" as="geometry" />
        </mxCell>
        <mxCell id="e-sfXhs4ZeaJ81gP7CqI-7" value="thông tin trả" style="text;html=1;align=center;verticalAlign=middle;resizable=0;points=[];autosize=1;strokeColor=none;fillColor=none;" parent="1" vertex="1">
          <mxGeometry x="1875" y="678" width="90" height="30" as="geometry" />
        </mxCell>
        <mxCell id="e-sfXhs4ZeaJ81gP7CqI-8" style="edgeStyle=orthogonalEdgeStyle;rounded=0;orthogonalLoop=1;jettySize=auto;html=1;entryX=0.231;entryY=0.985;entryDx=0;entryDy=0;entryPerimeter=0;" parent="1" source="vEN2frfrh9uhoCPEe1Sw-15" target="Yr9XN3frfgDYRgUrVWLw-18" edge="1">
          <mxGeometry relative="1" as="geometry">
            <Array as="points">
              <mxPoint x="1700" y="510" />
              <mxPoint x="1797" y="510" />
            </Array>
          </mxGeometry>
        </mxCell>
        <mxCell id="e-sfXhs4ZeaJ81gP7CqI-9" value="Sách" style="text;html=1;align=center;verticalAlign=middle;resizable=0;points=[];autosize=1;strokeColor=none;fillColor=none;" parent="1" vertex="1">
          <mxGeometry x="1735" y="478" width="50" height="30" as="geometry" />
        </mxCell>
        <mxCell id="e-sfXhs4ZeaJ81gP7CqI-11" value="sách" style="text;html=1;align=center;verticalAlign=middle;resizable=0;points=[];autosize=1;strokeColor=none;fillColor=none;" parent="1" vertex="1">
          <mxGeometry x="1345" y="698" width="50" height="30" as="geometry" />
        </mxCell>
        <mxCell id="e-sfXhs4ZeaJ81gP7CqI-12" value="Nhu cầu&amp;nbsp;" style="text;html=1;align=center;verticalAlign=middle;resizable=0;points=[];autosize=1;strokeColor=none;fillColor=none;" parent="1" vertex="1">
          <mxGeometry x="1355" y="1138" width="70" height="30" as="geometry" />
        </mxCell>
        <mxCell id="e-sfXhs4ZeaJ81gP7CqI-13" value="Nhu cầu&amp;nbsp;" style="text;html=1;align=center;verticalAlign=middle;resizable=0;points=[];autosize=1;strokeColor=none;fillColor=none;" parent="1" vertex="1">
          <mxGeometry x="1715" y="978" width="70" height="30" as="geometry" />
        </mxCell>
        <mxCell id="e-sfXhs4ZeaJ81gP7CqI-14" value="Nhu cầu&amp;nbsp;" style="text;html=1;align=center;verticalAlign=middle;resizable=0;points=[];autosize=1;strokeColor=none;fillColor=none;" parent="1" vertex="1">
          <mxGeometry x="2705" y="828" width="70" height="30" as="geometry" />
        </mxCell>
        <mxCell id="e-sfXhs4ZeaJ81gP7CqI-15" value="Yêu cầu thanh lọc" style="text;html=1;align=center;verticalAlign=middle;resizable=0;points=[];autosize=1;strokeColor=none;fillColor=none;" parent="1" vertex="1">
          <mxGeometry x="2560" y="688" width="120" height="30" as="geometry" />
        </mxCell>
        <mxCell id="e-sfXhs4ZeaJ81gP7CqI-16" value="Yêu cầu hủy" style="text;html=1;align=center;verticalAlign=middle;resizable=0;points=[];autosize=1;strokeColor=none;fillColor=none;" parent="1" vertex="1">
          <mxGeometry x="1825" y="398" width="90" height="30" as="geometry" />
        </mxCell>
        <mxCell id="e-sfXhs4ZeaJ81gP7CqI-17" value="Yêu cầu hủy" style="text;html=1;align=center;verticalAlign=middle;resizable=0;points=[];autosize=1;strokeColor=none;fillColor=none;" parent="1" vertex="1">
          <mxGeometry x="2425" y="578" width="90" height="30" as="geometry" />
        </mxCell>
        <mxCell id="e-sfXhs4ZeaJ81gP7CqI-18" value="Yêu cầu hủy" style="text;html=1;align=center;verticalAlign=middle;resizable=0;points=[];autosize=1;strokeColor=none;fillColor=none;rotation=90;" parent="1" vertex="1">
          <mxGeometry x="1775" y="808" width="90" height="30" as="geometry" />
        </mxCell>
        <mxCell id="e-sfXhs4ZeaJ81gP7CqI-20" value="Yêu cầu phạt" style="text;html=1;align=center;verticalAlign=middle;resizable=0;points=[];autosize=1;strokeColor=none;fillColor=none;rotation=90;" parent="1" vertex="1">
          <mxGeometry x="2185" y="148" width="90" height="30" as="geometry" />
        </mxCell>
        <mxCell id="e-sfXhs4ZeaJ81gP7CqI-21" value="Báo cáo" style="text;html=1;align=center;verticalAlign=middle;resizable=0;points=[];autosize=1;strokeColor=none;fillColor=none;rotation=90;" parent="1" vertex="1">
          <mxGeometry x="2495" y="158" width="70" height="30" as="geometry" />
        </mxCell>
        <mxCell id="e-sfXhs4ZeaJ81gP7CqI-22" value="Yêu cầu báo cáo" style="text;html=1;align=center;verticalAlign=middle;resizable=0;points=[];autosize=1;strokeColor=none;fillColor=none;rotation=90;" parent="1" vertex="1">
          <mxGeometry x="2345" y="198" width="110" height="30" as="geometry" />
        </mxCell>
        <mxCell id="e-sfXhs4ZeaJ81gP7CqI-24" value="Yêu cầu thanh lọc" style="text;html=1;align=center;verticalAlign=middle;resizable=0;points=[];autosize=1;strokeColor=none;fillColor=none;" parent="1" vertex="1">
          <mxGeometry x="2640" y="638" width="120" height="30" as="geometry" />
        </mxCell>
        <mxCell id="e-sfXhs4ZeaJ81gP7CqI-25" value="Biên mục" style="text;html=1;align=center;verticalAlign=middle;resizable=0;points=[];autosize=1;strokeColor=none;fillColor=none;rotation=90;" parent="1" vertex="1">
          <mxGeometry x="2475" y="1158" width="70" height="30" as="geometry" />
        </mxCell>
        <mxCell id="e-sfXhs4ZeaJ81gP7CqI-26" value="Biên mục" style="text;html=1;align=center;verticalAlign=middle;resizable=0;points=[];autosize=1;strokeColor=none;fillColor=none;rotation=0;" parent="1" vertex="1">
          <mxGeometry x="2280" y="1130" width="70" height="30" as="geometry" />
        </mxCell>
        <mxCell id="e-sfXhs4ZeaJ81gP7CqI-27" value="Sách" style="text;html=1;align=center;verticalAlign=middle;resizable=0;points=[];autosize=1;strokeColor=none;fillColor=none;" parent="1" vertex="1">
          <mxGeometry x="2090" y="1220" width="50" height="30" as="geometry" />
        </mxCell>
        <mxCell id="e-sfXhs4ZeaJ81gP7CqI-28" value="Sách" style="text;html=1;align=center;verticalAlign=middle;resizable=0;points=[];autosize=1;strokeColor=none;fillColor=none;" parent="1" vertex="1">
          <mxGeometry x="2288" y="1220" width="50" height="30" as="geometry" />
        </mxCell>
        <mxCell id="e-sfXhs4ZeaJ81gP7CqI-29" value="Thông tin sách" style="text;html=1;align=center;verticalAlign=middle;resizable=0;points=[];autosize=1;strokeColor=none;fillColor=none;" parent="1" vertex="1">
          <mxGeometry x="1800" y="210" width="100" height="30" as="geometry" />
        </mxCell>
        <mxCell id="e-sfXhs4ZeaJ81gP7CqI-30" value="Thông tin sách" style="text;html=1;align=center;verticalAlign=middle;resizable=0;points=[];autosize=1;strokeColor=none;fillColor=none;" parent="1" vertex="1">
          <mxGeometry x="1505" y="178" width="100" height="30" as="geometry" />
        </mxCell>
        <mxCell id="e-sfXhs4ZeaJ81gP7CqI-32" value="Yêu cầu mượn sách" style="text;html=1;align=center;verticalAlign=middle;resizable=0;points=[];autosize=1;strokeColor=none;fillColor=none;" parent="1" vertex="1">
          <mxGeometry x="1760" y="1370" width="130" height="30" as="geometry" />
        </mxCell>
        <mxCell id="e-sfXhs4ZeaJ81gP7CqI-35" value="Yêu cầu mượn sách" style="text;html=1;align=center;verticalAlign=middle;resizable=0;points=[];autosize=1;strokeColor=none;fillColor=none;" parent="1" vertex="1">
          <mxGeometry x="1755" y="1280" width="130" height="30" as="geometry" />
        </mxCell>
        <mxCell id="e-sfXhs4ZeaJ81gP7CqI-36" value="thông tin" style="text;html=1;align=center;verticalAlign=middle;resizable=0;points=[];autosize=1;strokeColor=none;fillColor=none;rotation=90;" parent="1" vertex="1">
          <mxGeometry x="1905" y="1090" width="70" height="30" as="geometry" />
        </mxCell>
        <mxCell id="q9LJkRbabQzuLHBZXVqr-2" value="tiến hành biên mục" style="text;html=1;align=center;verticalAlign=middle;resizable=0;points=[];autosize=1;strokeColor=none;fillColor=none;" parent="1" vertex="1">
          <mxGeometry x="2370" y="988" width="120" height="30" as="geometry" />
        </mxCell>
        <mxCell id="fszHum3gF-sAznwVAjQx-2" value="báo cáo" style="text;html=1;align=center;verticalAlign=middle;resizable=0;points=[];autosize=1;strokeColor=none;fillColor=none;" parent="1" vertex="1">
          <mxGeometry x="2290" y="290" width="70" height="30" as="geometry" />
        </mxCell>
        <mxCell id="fszHum3gF-sAznwVAjQx-7" value="&lt;span style=&quot;font-family: &amp;quot;Times New Roman&amp;quot;, serif;&quot;&gt;K5.Kho&lt;/span&gt;&lt;br style=&quot;font-family: &amp;quot;Times New Roman&amp;quot;, serif;&quot;&gt;&lt;span style=&quot;font-family: &amp;quot;Times New Roman&amp;quot;, serif;&quot;&gt;lưu trữ đơn&lt;/span&gt;" style="html=1;dashed=0;whiteSpace=wrap;shape=partialRectangle;right=0;left=0;" parent="1" vertex="1">
          <mxGeometry x="1780" y="1128" width="100" height="30" as="geometry" />
        </mxCell>
        <mxCell id="fszHum3gF-sAznwVAjQx-10" value="báo cáo&amp;nbsp;" style="text;html=1;align=center;verticalAlign=middle;resizable=0;points=[];autosize=1;strokeColor=none;fillColor=none;rotation=90;" parent="1" vertex="1">
          <mxGeometry x="2525" y="488" width="70" height="30" as="geometry" />
        </mxCell>
        <mxCell id="mYDj6SqjAQ-WQE26mWQE-4" value="&lt;span style=&quot;line-height: 130%; font-family: &amp;quot;Times New Roman&amp;quot;, serif;&quot; lang=&quot;EN-GB&quot;&gt;&lt;font style=&quot;font-size: 12px;&quot;&gt;K2.Kho dữ liệu mượn trả&lt;/font&gt;&lt;/span&gt;" style="html=1;dashed=0;whiteSpace=wrap;shape=partialRectangle;right=0;left=0;" vertex="1" parent="1">
          <mxGeometry x="1930" y="778" width="100" height="30" as="geometry" />
        </mxCell>
        <mxCell id="bXZ0ybjpgKeLTYXX3pHM-1" value="&lt;span style=&quot;line-height: 130%; font-family: &amp;quot;Times New Roman&amp;quot;, serif;&quot; lang=&quot;VI&quot;&gt;&lt;font style=&quot;font-size: 12px;&quot;&gt;K4.Kho dữ liệu mượn trả mật&lt;/font&gt;&lt;/span&gt;" style="html=1;dashed=0;whiteSpace=wrap;shape=partialRectangle;right=0;left=0;" vertex="1" parent="1">
          <mxGeometry x="2050" y="778" width="100" height="30" as="geometry" />
        </mxCell>
        <mxCell id="bXZ0ybjpgKeLTYXX3pHM-2" value="&lt;span style=&quot;line-height: 130%; font-family: &amp;quot;Times New Roman&amp;quot;, serif;&quot; lang=&quot;VI&quot;&gt;K3.Kho&lt;br/&gt;thông tin sách&lt;/span&gt;" style="html=1;dashed=0;whiteSpace=wrap;shape=partialRectangle;right=0;left=0;" vertex="1" parent="1">
          <mxGeometry x="1990" y="1037" width="100" height="30" as="geometry" />
        </mxCell>
        <mxCell id="bXZ0ybjpgKeLTYXX3pHM-3" value="M1.Bạn đọc" style="rounded=0;whiteSpace=wrap;html=1;" vertex="1" parent="1">
          <mxGeometry x="2010" y="70" width="120" height="60" as="geometry" />
        </mxCell>
        <mxCell id="bXZ0ybjpgKeLTYXX3pHM-5" value="&lt;span style=&quot;line-height: 130%; font-family: &amp;quot;Times New Roman&amp;quot;, serif;&quot; lang=&quot;VI&quot;&gt;&lt;font style=&quot;font-size: 12px;&quot;&gt;K6.Kho&lt;br/&gt;lưu tiền phạt&lt;/font&gt;&lt;/span&gt;" style="html=1;dashed=0;whiteSpace=wrap;shape=partialRectangle;right=0;left=0;" vertex="1" parent="1">
          <mxGeometry x="1965" y="270" width="100" height="30" as="geometry" />
        </mxCell>
        <mxCell id="bXZ0ybjpgKeLTYXX3pHM-9" value="" style="endArrow=classic;html=1;rounded=0;exitX=0.75;exitY=0;exitDx=0;exitDy=0;entryX=0;entryY=1;entryDx=0;entryDy=0;" edge="1" parent="1" source="mYDj6SqjAQ-WQE26mWQE-4" target="vEN2frfrh9uhoCPEe1Sw-12">
          <mxGeometry width="50" height="50" relative="1" as="geometry">
            <mxPoint x="2080" y="743" as="sourcePoint" />
            <mxPoint x="2420" y="380" as="targetPoint" />
          </mxGeometry>
        </mxCell>
        <mxCell id="bXZ0ybjpgKeLTYXX3pHM-11" value="thông tin trả" style="text;html=1;align=center;verticalAlign=middle;resizable=0;points=[];autosize=1;strokeColor=none;fillColor=none;" vertex="1" parent="1">
          <mxGeometry x="1875" y="728" width="90" height="30" as="geometry" />
        </mxCell>
        <mxCell id="bXZ0ybjpgKeLTYXX3pHM-13" style="edgeStyle=orthogonalEdgeStyle;rounded=0;orthogonalLoop=1;jettySize=auto;html=1;entryX=1;entryY=0.5;entryDx=0;entryDy=0;" edge="1" parent="1" source="bXZ0ybjpgKeLTYXX3pHM-12" target="vEN2frfrh9uhoCPEe1Sw-12">
          <mxGeometry relative="1" as="geometry" />
        </mxCell>
        <mxCell id="bXZ0ybjpgKeLTYXX3pHM-12" value="&lt;span style=&quot;font-family: &amp;quot;Times New Roman&amp;quot;, serif;&quot;&gt;K5.Kho&lt;/span&gt;&lt;br style=&quot;font-family: &amp;quot;Times New Roman&amp;quot;, serif;&quot;&gt;&lt;span style=&quot;font-family: &amp;quot;Times New Roman&amp;quot;, serif;&quot;&gt;lưu trữ đơn&lt;/span&gt;" style="html=1;dashed=0;whiteSpace=wrap;shape=partialRectangle;right=0;left=0;" vertex="1" parent="1">
          <mxGeometry x="2560" y="220" width="100" height="30" as="geometry" />
        </mxCell>
        <mxCell id="bXZ0ybjpgKeLTYXX3pHM-15" style="edgeStyle=orthogonalEdgeStyle;rounded=0;orthogonalLoop=1;jettySize=auto;html=1;entryX=0.967;entryY=0.291;entryDx=0;entryDy=0;entryPerimeter=0;" edge="1" parent="1" source="bXZ0ybjpgKeLTYXX3pHM-5" target="vEN2frfrh9uhoCPEe1Sw-7">
          <mxGeometry relative="1" as="geometry" />
        </mxCell>
      </root>
    </mxGraphModel>
  </diagram>
</mxfile>
